%TF.GenerationSoftware,KiCad,Pcbnew,(6.0.1-0)*%
%TF.CreationDate,2022-01-31T22:42:59-05:00*%
%TF.ProjectId,Podoboard_0.3,506f646f-626f-4617-9264-5f302e332e6b,rev?*%
%TF.SameCoordinates,Original*%
%TF.FileFunction,Copper,L2,Bot*%
%TF.FilePolarity,Positive*%
%FSLAX46Y46*%
G04 Gerber Fmt 4.6, Leading zero omitted, Abs format (unit mm)*
G04 Created by KiCad (PCBNEW (6.0.1-0)) date 2022-01-31 22:42:59*
%MOMM*%
%LPD*%
G01*
G04 APERTURE LIST*
G04 Aperture macros list*
%AMRoundRect*
0 Rectangle with rounded corners*
0 $1 Rounding radius*
0 $2 $3 $4 $5 $6 $7 $8 $9 X,Y pos of 4 corners*
0 Add a 4 corners polygon primitive as box body*
4,1,4,$2,$3,$4,$5,$6,$7,$8,$9,$2,$3,0*
0 Add four circle primitives for the rounded corners*
1,1,$1+$1,$2,$3*
1,1,$1+$1,$4,$5*
1,1,$1+$1,$6,$7*
1,1,$1+$1,$8,$9*
0 Add four rect primitives between the rounded corners*
20,1,$1+$1,$2,$3,$4,$5,0*
20,1,$1+$1,$4,$5,$6,$7,0*
20,1,$1+$1,$6,$7,$8,$9,0*
20,1,$1+$1,$8,$9,$2,$3,0*%
G04 Aperture macros list end*
%TA.AperFunction,ComponentPad*%
%ADD10C,1.600000*%
%TD*%
%TA.AperFunction,ComponentPad*%
%ADD11RoundRect,0.400000X-0.400000X0.400000X-0.400000X-0.400000X0.400000X-0.400000X0.400000X0.400000X0*%
%TD*%
%TA.AperFunction,ComponentPad*%
%ADD12R,1.700000X1.700000*%
%TD*%
%TA.AperFunction,ComponentPad*%
%ADD13O,1.700000X1.700000*%
%TD*%
%TA.AperFunction,ComponentPad*%
%ADD14R,1.600000X1.600000*%
%TD*%
%TA.AperFunction,ComponentPad*%
%ADD15C,1.300000*%
%TD*%
%TA.AperFunction,ComponentPad*%
%ADD16C,1.400000*%
%TD*%
%TA.AperFunction,ComponentPad*%
%ADD17O,1.400000X1.400000*%
%TD*%
%TA.AperFunction,ComponentPad*%
%ADD18O,1.600000X1.600000*%
%TD*%
%TA.AperFunction,ComponentPad*%
%ADD19R,2.100000X2.100000*%
%TD*%
%TA.AperFunction,ComponentPad*%
%ADD20C,2.100000*%
%TD*%
%TA.AperFunction,ComponentPad*%
%ADD21R,1.000000X1.000000*%
%TD*%
%TA.AperFunction,ComponentPad*%
%ADD22O,1.000000X1.000000*%
%TD*%
%TA.AperFunction,ComponentPad*%
%ADD23O,1.050000X1.250000*%
%TD*%
%TA.AperFunction,ComponentPad*%
%ADD24O,1.000000X1.900000*%
%TD*%
%TA.AperFunction,Conductor*%
%ADD25C,0.250000*%
%TD*%
G04 APERTURE END LIST*
D10*
%TO.P,SW1,*%
%TO.N,*%
X66675000Y-16520000D03*
X61595000Y-16520000D03*
D11*
%TO.P,SW1,1,A*%
%TO.N,Net-(J_GIGUE1-PadS)*%
X61595000Y-21600000D03*
D10*
%TO.P,SW1,2,B*%
%TO.N,GND*%
X64135000Y-21600000D03*
%TO.P,SW1,3,C*%
%TO.N,unconnected-(SW1-Pad3)*%
X66675000Y-21600000D03*
%TD*%
D12*
%TO.P,J9,1,VBUS*%
%TO.N,Net-(J8-Pad1)*%
X48270000Y-29845000D03*
D13*
%TO.P,J9,2,D-*%
%TO.N,Net-(J8-Pad2)*%
X50810000Y-29845000D03*
%TO.P,J9,3,D+*%
%TO.N,Net-(J8-Pad3)*%
X53350000Y-29845000D03*
%TO.P,J9,4,ID*%
%TO.N,Net-(J8-Pad4)*%
X55890000Y-29845000D03*
%TD*%
D14*
%TO.P,U4,1,GND*%
%TO.N,GND*%
X44694000Y-99558000D03*
D10*
%TO.P,U4,2,0_RX1_CRX2_CS1*%
%TO.N,unconnected-(U4-Pad2)*%
X44694000Y-102098000D03*
%TO.P,U4,3,1_TX1_CTX2_MISO1*%
%TO.N,unconnected-(U4-Pad3)*%
X44694000Y-104638000D03*
%TO.P,U4,4,2_OUT2*%
%TO.N,Net-(J_GIGUE1-PadR)*%
X44694000Y-107178000D03*
%TO.P,U4,5,3_LRCLK2*%
%TO.N,Net-(J_GIGUE1-PadT)*%
X44694000Y-109718000D03*
%TO.P,U4,6,4_BCLK2*%
%TO.N,BL*%
X44694000Y-112258000D03*
%TO.P,U4,7,5_IN2*%
%TO.N,RST*%
X44694000Y-114798000D03*
%TO.P,U4,8,6_OUT1D*%
%TO.N,DC*%
X44694000Y-117338000D03*
%TO.P,U4,9,7_RX2_OUT1A*%
%TO.N,CS*%
X44694000Y-119878000D03*
%TO.P,U4,10,8_TX2_IN1*%
%TO.N,unconnected-(U4-Pad10)*%
X44694000Y-122418000D03*
%TO.P,U4,11,9_OUT1C*%
%TO.N,DIN*%
X44694000Y-124958000D03*
%TO.P,U4,12,10_CS_MQSR*%
%TO.N,unconnected-(U4-Pad12)*%
X44694000Y-127498000D03*
%TO.P,U4,13,11_MOSI_CTX1*%
%TO.N,CLK*%
X44694000Y-130038000D03*
%TO.P,U4,14,12_MISO_MQSL*%
%TO.N,unconnected-(U4-Pad14)*%
X44694000Y-132578000D03*
%TO.P,U4,15,3V3*%
%TO.N,unconnected-(U4-Pad15)*%
X44694000Y-135118000D03*
%TO.P,U4,16,24_A10_TX6_SCL2*%
%TO.N,unconnected-(U4-Pad16)*%
X44694000Y-137658000D03*
%TO.P,U4,17,25_A11_RX6_SDA2*%
%TO.N,unconnected-(U4-Pad17)*%
X44694000Y-140198000D03*
%TO.P,U4,18,26_A12_MOSI1*%
%TO.N,unconnected-(U4-Pad18)*%
X44694000Y-142738000D03*
%TO.P,U4,19,27_A13_SCK1*%
%TO.N,unconnected-(U4-Pad19)*%
X44694000Y-145278000D03*
%TO.P,U4,20,28_RX7*%
%TO.N,unconnected-(U4-Pad20)*%
X44694000Y-147818000D03*
%TO.P,U4,21,29_TX7*%
%TO.N,unconnected-(U4-Pad21)*%
X44694000Y-150358000D03*
%TO.P,U4,22,30_CRX3*%
%TO.N,unconnected-(U4-Pad22)*%
X44694000Y-152898000D03*
%TO.P,U4,23,31_CTX3*%
%TO.N,unconnected-(U4-Pad23)*%
X44694000Y-155438000D03*
%TO.P,U4,24,32_OUT1B*%
%TO.N,unconnected-(U4-Pad24)*%
X44694000Y-157978000D03*
%TO.P,U4,25,33_MCLK2*%
%TO.N,unconnected-(U4-Pad25)*%
X59934000Y-157978000D03*
%TO.P,U4,26,34_RX8*%
%TO.N,unconnected-(U4-Pad26)*%
X59934000Y-155438000D03*
%TO.P,U4,27,35_TX8*%
%TO.N,unconnected-(U4-Pad27)*%
X59934000Y-152898000D03*
%TO.P,U4,28,36_CS*%
%TO.N,unconnected-(U4-Pad28)*%
X59934000Y-150358000D03*
%TO.P,U4,29,37_CS*%
%TO.N,unconnected-(U4-Pad29)*%
X59934000Y-147818000D03*
%TO.P,U4,30,38_CS1_IN1*%
%TO.N,unconnected-(U4-Pad30)*%
X59934000Y-145278000D03*
%TO.P,U4,31,39_MISO1_OUT1A*%
%TO.N,unconnected-(U4-Pad31)*%
X59934000Y-142738000D03*
%TO.P,U4,32,40_A16*%
%TO.N,Net-(U0-Pad6)*%
X59934000Y-140198000D03*
%TO.P,U4,33,41_A17*%
%TO.N,Net-(U1-Pad6)*%
X59934000Y-137658000D03*
%TO.P,U4,34,GND*%
%TO.N,unconnected-(U4-Pad34)*%
X59934000Y-135118000D03*
%TO.P,U4,35,13_SCK_LED*%
%TO.N,Net-(U2-Pad6)*%
X59934000Y-132578000D03*
%TO.P,U4,36,14_A0_TX3_SPDIF_OUT*%
%TO.N,Net-(U3-Pad6)*%
X59934000Y-130038000D03*
%TO.P,U4,37,15_A1_RX3_SPDIF_IN*%
%TO.N,Net-(U3-Pad1)*%
X59934000Y-127498000D03*
%TO.P,U4,38,16_A2_RX4_SCL1*%
%TO.N,Net-(U2-Pad1)*%
X59934000Y-124958000D03*
%TO.P,U4,39,17_A3_TX4_SDA1*%
%TO.N,Net-(U1-Pad1)*%
X59934000Y-122418000D03*
%TO.P,U4,40,18_A4_SDA*%
%TO.N,Net-(U0-Pad1)*%
X59934000Y-119878000D03*
%TO.P,U4,41,19_A5_SCL*%
%TO.N,Net-(U4-Pad41)*%
X59934000Y-117338000D03*
%TO.P,U4,42,20_A6_TX5_LRCLK1*%
%TO.N,Net-(U4-Pad42)*%
X59934000Y-114798000D03*
%TO.P,U4,43,21_A7_RX5_BCLK1*%
%TO.N,Net-(U4-Pad43)*%
X59934000Y-112258000D03*
%TO.P,U4,44,22_A8_CTX1*%
%TO.N,Net-(J10-Pad2)*%
X59934000Y-109718000D03*
%TO.P,U4,45,23_A9_CRX1_MCLK1*%
%TO.N,unconnected-(U4-Pad45)*%
X59934000Y-107178000D03*
%TO.P,U4,46,3V3*%
%TO.N,3.3v*%
X59934000Y-104638000D03*
%TO.P,U4,47,GND*%
%TO.N,Net-(R0-Pad2)*%
X59934000Y-102098000D03*
%TO.P,U4,48,VIN*%
%TO.N,Net-(J0-Pad1)*%
X59934000Y-99558000D03*
%TO.P,U4,49,VUSB*%
%TO.N,unconnected-(U4-Pad49)*%
X57394000Y-102098000D03*
D15*
%TO.P,U4,66,D-*%
%TO.N,unconnected-(U4-Pad66)*%
X53584000Y-100288000D03*
%TO.P,U4,67,D+*%
%TO.N,unconnected-(U4-Pad67)*%
X51044000Y-100288000D03*
%TD*%
D16*
%TO.P,R13,1*%
%TO.N,GND*%
X59817000Y-167667000D03*
D17*
%TO.P,R13,2*%
%TO.N,Net-(U4-Pad41)*%
X59817000Y-162587000D03*
%TD*%
D14*
%TO.P,U3,1*%
%TO.N,Net-(U3-Pad1)*%
X48514000Y-229108000D03*
D18*
%TO.P,U3,2*%
X48514000Y-231648000D03*
%TO.P,U3,3*%
%TO.N,Net-(J3-Pad2)*%
X48514000Y-234188000D03*
%TO.P,U3,4,GND*%
%TO.N,Net-(R0-Pad2)*%
X48514000Y-236728000D03*
%TO.P,U3,5*%
%TO.N,Net-(J4-Pad2)*%
X56134000Y-236728000D03*
%TO.P,U3,6*%
%TO.N,Net-(U3-Pad6)*%
X56134000Y-234188000D03*
%TO.P,U3,7*%
X56134000Y-231648000D03*
%TO.P,U3,8,V+*%
%TO.N,Net-(J0-Pad1)*%
X56134000Y-229108000D03*
%TD*%
D16*
%TO.P,R0,1*%
%TO.N,Net-(J0-Pad2)*%
X39614000Y-189678000D03*
D17*
%TO.P,R0,2*%
%TO.N,Net-(R0-Pad2)*%
X39614000Y-184598000D03*
%TD*%
D14*
%TO.P,U2,1*%
%TO.N,Net-(U2-Pad1)*%
X48514000Y-213868000D03*
D18*
%TO.P,U2,2*%
X48514000Y-216408000D03*
%TO.P,U2,3*%
%TO.N,Net-(J2-Pad2)*%
X48514000Y-218948000D03*
%TO.P,U2,4,GND*%
%TO.N,Net-(R0-Pad2)*%
X48514000Y-221488000D03*
%TO.P,U2,5*%
%TO.N,Net-(J5-Pad2)*%
X56134000Y-221488000D03*
%TO.P,U2,6*%
%TO.N,Net-(U2-Pad6)*%
X56134000Y-218948000D03*
%TO.P,U2,7*%
X56134000Y-216408000D03*
%TO.P,U2,8,V+*%
%TO.N,Net-(J0-Pad1)*%
X56134000Y-213868000D03*
%TD*%
D16*
%TO.P,R5,1*%
%TO.N,Net-(J5-Pad2)*%
X64394000Y-220208000D03*
D17*
%TO.P,R5,2*%
%TO.N,Net-(R0-Pad2)*%
X64394000Y-215128000D03*
%TD*%
D19*
%TO.P,J6,1,Pin_1*%
%TO.N,Net-(J0-Pad1)*%
X72014000Y-202428000D03*
D20*
%TO.P,J6,2,Pin_2*%
%TO.N,Net-(J6-Pad2)*%
X72014000Y-204968000D03*
%TD*%
D19*
%TO.P,J2,1,Pin_1*%
%TO.N,Net-(J0-Pad1)*%
X31994000Y-215128000D03*
D20*
%TO.P,J2,2,Pin_2*%
%TO.N,Net-(J2-Pad2)*%
X31994000Y-217668000D03*
%TD*%
D19*
%TO.P,J7,1,Pin_1*%
%TO.N,Net-(J0-Pad1)*%
X72634000Y-185918000D03*
D20*
%TO.P,J7,2,Pin_2*%
%TO.N,Net-(J7-Pad2)*%
X72634000Y-188458000D03*
%TD*%
D16*
%TO.P,R1,1*%
%TO.N,Net-(J7-Pad2)*%
X65014000Y-189678000D03*
D17*
%TO.P,R1,2*%
%TO.N,Net-(R0-Pad2)*%
X65014000Y-184598000D03*
%TD*%
D19*
%TO.P,J12,1,Pin_1*%
%TO.N,GND*%
X71247000Y-174498000D03*
D20*
%TO.P,J12,2,Pin_2*%
%TO.N,Net-(U4-Pad42)*%
X71247000Y-171958000D03*
%TD*%
D19*
%TO.P,J13,1,Pin_1*%
%TO.N,GND*%
X71247000Y-166497000D03*
D20*
%TO.P,J13,2,Pin_2*%
%TO.N,Net-(U4-Pad41)*%
X71247000Y-163957000D03*
%TD*%
D21*
%TO.P,J_LCD1,1,Pin_1*%
%TO.N,BL*%
X31740000Y-110988000D03*
D22*
%TO.P,J_LCD1,2,Pin_2*%
%TO.N,RST*%
X31740000Y-112258000D03*
%TO.P,J_LCD1,3,Pin_3*%
%TO.N,DC*%
X31740000Y-113528000D03*
%TO.P,J_LCD1,4,Pin_4*%
%TO.N,CS*%
X31740000Y-114798000D03*
%TO.P,J_LCD1,5,Pin_5*%
%TO.N,CLK*%
X31740000Y-116068000D03*
%TO.P,J_LCD1,6,Pin_6*%
%TO.N,DIN*%
X31740000Y-117338000D03*
%TO.P,J_LCD1,7,Pin_7*%
%TO.N,GND*%
X31740000Y-118608000D03*
%TO.P,J_LCD1,8,Pin_8*%
%TO.N,3.3v*%
X31740000Y-119878000D03*
%TD*%
D16*
%TO.P,R12,1*%
%TO.N,GND*%
X59817000Y-175718000D03*
D17*
%TO.P,R12,2*%
%TO.N,Net-(U4-Pad42)*%
X59817000Y-170638000D03*
%TD*%
D14*
%TO.P,U1,1*%
%TO.N,Net-(U1-Pad1)*%
X48514000Y-198628000D03*
D18*
%TO.P,U1,2*%
X48514000Y-201168000D03*
%TO.P,U1,3*%
%TO.N,Net-(J1-Pad2)*%
X48514000Y-203708000D03*
%TO.P,U1,4,GND*%
%TO.N,Net-(R0-Pad2)*%
X48514000Y-206248000D03*
%TO.P,U1,5*%
%TO.N,Net-(J6-Pad2)*%
X56134000Y-206248000D03*
%TO.P,U1,6*%
%TO.N,Net-(U1-Pad6)*%
X56134000Y-203708000D03*
%TO.P,U1,7*%
X56134000Y-201168000D03*
%TO.P,U1,8,V+*%
%TO.N,Net-(J0-Pad1)*%
X56134000Y-198628000D03*
%TD*%
D19*
%TO.P,J11,1,Pin_1*%
%TO.N,GND*%
X31994000Y-174488000D03*
D20*
%TO.P,J11,2,Pin_2*%
%TO.N,Net-(U4-Pad43)*%
X31994000Y-171948000D03*
%TD*%
D16*
%TO.P,R11,1*%
%TO.N,GND*%
X44694000Y-175708000D03*
D17*
%TO.P,R11,2*%
%TO.N,Net-(U4-Pad43)*%
X44694000Y-170628000D03*
%TD*%
D19*
%TO.P,J3,1,Pin_1*%
%TO.N,Net-(J0-Pad1)*%
X31994000Y-230368000D03*
D20*
%TO.P,J3,2,Pin_2*%
%TO.N,Net-(J3-Pad2)*%
X31994000Y-232908000D03*
%TD*%
D19*
%TO.P,J5,1,Pin_1*%
%TO.N,Net-(J0-Pad1)*%
X72014000Y-216398000D03*
D20*
%TO.P,J5,2,Pin_2*%
%TO.N,Net-(J5-Pad2)*%
X72014000Y-218938000D03*
%TD*%
D16*
%TO.P,R6,1*%
%TO.N,Net-(J3-Pad2)*%
X40884000Y-234128000D03*
D17*
%TO.P,R6,2*%
%TO.N,Net-(R0-Pad2)*%
X40884000Y-229048000D03*
%TD*%
D16*
%TO.P,R4,1*%
%TO.N,Net-(J2-Pad2)*%
X39614000Y-218888000D03*
D17*
%TO.P,R4,2*%
%TO.N,Net-(R0-Pad2)*%
X39614000Y-213808000D03*
%TD*%
D16*
%TO.P,R3,1*%
%TO.N,Net-(J6-Pad2)*%
X64394000Y-206188000D03*
D17*
%TO.P,R3,2*%
%TO.N,Net-(R0-Pad2)*%
X64394000Y-201108000D03*
%TD*%
D19*
%TO.P,J1,1,Pin_1*%
%TO.N,Net-(J0-Pad1)*%
X31994000Y-202428000D03*
D20*
%TO.P,J1,2,Pin_2*%
%TO.N,Net-(J1-Pad2)*%
X31994000Y-204968000D03*
%TD*%
D23*
%TO.P,J8,6,Shield*%
%TO.N,unconnected-(J8-Pad6)*%
X49972000Y-19278000D03*
X54422000Y-19278000D03*
D24*
X56372000Y-16278000D03*
X48022000Y-16278000D03*
%TD*%
D19*
%TO.P,J4,1,Pin_1*%
%TO.N,Net-(J0-Pad1)*%
X72014000Y-231638000D03*
D20*
%TO.P,J4,2,Pin_2*%
%TO.N,Net-(J4-Pad2)*%
X72014000Y-234178000D03*
%TD*%
D16*
%TO.P,R7,1*%
%TO.N,Net-(J4-Pad2)*%
X64394000Y-235398000D03*
D17*
%TO.P,R7,2*%
%TO.N,Net-(R0-Pad2)*%
X64394000Y-230318000D03*
%TD*%
D19*
%TO.P,J0,1,Pin_1*%
%TO.N,Net-(J0-Pad1)*%
X31994000Y-185918000D03*
D20*
%TO.P,J0,2,Pin_2*%
%TO.N,Net-(J0-Pad2)*%
X31994000Y-188458000D03*
%TD*%
D16*
%TO.P,R2,1*%
%TO.N,Net-(J1-Pad2)*%
X39614000Y-206188000D03*
D17*
%TO.P,R2,2*%
%TO.N,Net-(R0-Pad2)*%
X39614000Y-201108000D03*
%TD*%
D19*
%TO.P,J10,1,Pin_1*%
%TO.N,GND*%
X31994000Y-166868000D03*
D20*
%TO.P,J10,2,Pin_2*%
%TO.N,Net-(J10-Pad2)*%
X31994000Y-164328000D03*
%TD*%
D14*
%TO.P,U0,1*%
%TO.N,Net-(U0-Pad1)*%
X48514000Y-183388000D03*
D18*
%TO.P,U0,2*%
X48514000Y-185928000D03*
%TO.P,U0,3*%
%TO.N,Net-(J0-Pad2)*%
X48514000Y-188468000D03*
%TO.P,U0,4,GND*%
%TO.N,Net-(R0-Pad2)*%
X48514000Y-191008000D03*
%TO.P,U0,5*%
%TO.N,Net-(J7-Pad2)*%
X56134000Y-191008000D03*
%TO.P,U0,6*%
%TO.N,Net-(U0-Pad6)*%
X56134000Y-188468000D03*
%TO.P,U0,7*%
X56134000Y-185928000D03*
%TO.P,U0,8,V+*%
%TO.N,Net-(J0-Pad1)*%
X56134000Y-183388000D03*
%TD*%
D16*
%TO.P,R10,1*%
%TO.N,GND*%
X44694000Y-168088000D03*
D17*
%TO.P,R10,2*%
%TO.N,Net-(J10-Pad2)*%
X44694000Y-163008000D03*
%TD*%
D25*
%TO.N,3.3v*%
X59934000Y-104638000D02*
X47869000Y-104638000D01*
X47869000Y-104638000D02*
X47752000Y-104521000D01*
X47752000Y-104521000D02*
X47752000Y-95377000D01*
X47752000Y-95377000D02*
X47625000Y-95250000D01*
X47625000Y-95250000D02*
X25400000Y-95250000D01*
X25400000Y-95250000D02*
X25400000Y-119878000D01*
X25400000Y-119878000D02*
X31740000Y-119878000D01*
%TO.N,Net-(U3-Pad6)*%
X56134000Y-231648000D02*
X62484000Y-225298000D01*
X62484000Y-225298000D02*
X62484000Y-182753000D01*
X62484000Y-182753000D02*
X66167000Y-179070000D01*
X66167000Y-179070000D02*
X66167000Y-136271000D01*
X66167000Y-136271000D02*
X59934000Y-130038000D01*
%TO.N,Net-(R0-Pad2)*%
X43561000Y-236728000D02*
X43561000Y-239395000D01*
X43561000Y-239395000D02*
X79756000Y-239395000D01*
X79756000Y-239395000D02*
X79756000Y-227203000D01*
X40884000Y-229048000D02*
X43748000Y-229048000D01*
X43561000Y-236728000D02*
X48514000Y-236728000D01*
X43748000Y-229048000D02*
X43561000Y-229235000D01*
X43561000Y-229235000D02*
X43561000Y-236728000D01*
%TO.N,GND*%
X31740000Y-118608000D02*
X35550000Y-118608000D01*
X35560000Y-174498000D02*
X35687000Y-174371000D01*
X35550000Y-118608000D02*
X35687000Y-118745000D01*
X35687000Y-118745000D02*
X35687000Y-174371000D01*
X31994000Y-166868000D02*
X35687000Y-166868000D01*
X35570000Y-174488000D02*
X31994000Y-174488000D01*
X71247000Y-166497000D02*
X67818000Y-166497000D01*
X67818000Y-166497000D02*
X67818000Y-174498000D01*
X67818000Y-174498000D02*
X71247000Y-174498000D01*
X31740000Y-118608000D02*
X26797000Y-118608000D01*
X26797000Y-118608000D02*
X26797000Y-99558000D01*
X26797000Y-99558000D02*
X44694000Y-99558000D01*
%TO.N,Net-(U0-Pad1)*%
X59934000Y-119878000D02*
X48514000Y-131298000D01*
X48514000Y-131298000D02*
X48514000Y-183388000D01*
%TO.N,Net-(U1-Pad1)*%
X48514000Y-198628000D02*
X51562000Y-195580000D01*
X59573000Y-122418000D02*
X59934000Y-122418000D01*
X51562000Y-195580000D02*
X51562000Y-130429000D01*
X51562000Y-130429000D02*
X59573000Y-122418000D01*
%TO.N,Net-(U2-Pad1)*%
X48514000Y-213868000D02*
X53086000Y-213868000D01*
X53086000Y-213868000D02*
X53086000Y-131806000D01*
X53086000Y-131806000D02*
X59934000Y-124958000D01*
%TO.N,Net-(U3-Pad1)*%
X48514000Y-229108000D02*
X54483000Y-229108000D01*
X54483000Y-229108000D02*
X54610000Y-228981000D01*
X54610000Y-228981000D02*
X54610000Y-216341700D01*
X54610000Y-216341700D02*
X54483000Y-216214700D01*
X54483000Y-216214700D02*
X54483000Y-132949000D01*
X54483000Y-132949000D02*
X59934000Y-127498000D01*
%TO.N,Net-(U0-Pad6)*%
X56134000Y-185928000D02*
X57658000Y-185928000D01*
X57658000Y-185928000D02*
X58166000Y-185420000D01*
X58166000Y-185420000D02*
X58166000Y-141966000D01*
X58166000Y-141966000D02*
X59934000Y-140198000D01*
%TO.N,Net-(U1-Pad6)*%
X56134000Y-201168000D02*
X60325000Y-201168000D01*
X60325000Y-201168000D02*
X60452000Y-201041000D01*
X60452000Y-201041000D02*
X60452000Y-180213000D01*
X60452000Y-180213000D02*
X63627000Y-177038000D01*
X63627000Y-177038000D02*
X63627000Y-141351000D01*
X63627000Y-141351000D02*
X59934000Y-137658000D01*
%TO.N,Net-(U2-Pad6)*%
X56134000Y-216408000D02*
X61087000Y-216408000D01*
X61087000Y-216408000D02*
X61468000Y-216027000D01*
X61468000Y-216027000D02*
X61468000Y-181610000D01*
X61468000Y-181610000D02*
X64897000Y-178181000D01*
X64897000Y-178181000D02*
X64897000Y-136398000D01*
X64897000Y-136398000D02*
X61077000Y-132578000D01*
X61077000Y-132578000D02*
X59934000Y-132578000D01*
%TO.N,Net-(R0-Pad2)*%
X79502000Y-182372000D02*
X79502000Y-102616000D01*
X79502000Y-102616000D02*
X78984000Y-102098000D01*
X78984000Y-102098000D02*
X59934000Y-102098000D01*
X43434000Y-221488000D02*
X43561000Y-221615000D01*
X43561000Y-221615000D02*
X43561000Y-228981000D01*
X43561000Y-228981000D02*
X43494000Y-229048000D01*
X43561000Y-206375000D02*
X43561000Y-221361000D01*
X43561000Y-221361000D02*
X43434000Y-221488000D01*
X39614000Y-213808000D02*
X43561000Y-213808000D01*
X79756000Y-199771000D02*
X79756000Y-182626000D01*
X65024000Y-182372000D02*
X65014000Y-182382000D01*
X79502000Y-182372000D02*
X65024000Y-182372000D01*
X79756000Y-182626000D02*
X79502000Y-182372000D01*
X65014000Y-182382000D02*
X65014000Y-184598000D01*
X79375000Y-199390000D02*
X64389000Y-199390000D01*
X79756000Y-212725000D02*
X79756000Y-199771000D01*
X79756000Y-199771000D02*
X79375000Y-199390000D01*
X64389000Y-199390000D02*
X64394000Y-199395000D01*
X64394000Y-199395000D02*
X64394000Y-201108000D01*
X64516000Y-212725000D02*
X64389000Y-212852000D01*
X79756000Y-212725000D02*
X64516000Y-212725000D01*
X64394000Y-212857000D02*
X64394000Y-215128000D01*
X79756000Y-227203000D02*
X79756000Y-212725000D01*
X64389000Y-212852000D02*
X64394000Y-212857000D01*
X64394000Y-230318000D02*
X64394000Y-227335000D01*
X64394000Y-227335000D02*
X64389000Y-227330000D01*
X79756000Y-227203000D02*
X64516000Y-227203000D01*
X64516000Y-227203000D02*
X64389000Y-227330000D01*
X43434000Y-221488000D02*
X48514000Y-221488000D01*
X43561000Y-206121000D02*
X43688000Y-206248000D01*
X43561000Y-201041000D02*
X43561000Y-206121000D01*
X43688000Y-206248000D02*
X48514000Y-206248000D01*
X43561000Y-191262000D02*
X43561000Y-201041000D01*
X43561000Y-201041000D02*
X43494000Y-201108000D01*
X43494000Y-201108000D02*
X39614000Y-201108000D01*
X39614000Y-184598000D02*
X43501000Y-184598000D01*
X43501000Y-184598000D02*
X43561000Y-184658000D01*
X43561000Y-184658000D02*
X43561000Y-191262000D01*
X43561000Y-191262000D02*
X43815000Y-191008000D01*
X43815000Y-191008000D02*
X48514000Y-191008000D01*
%TD*%
M02*
