M48
; DRILL file {KiCad (6.0.1-0)} date Monday, January 31, 2022 at 10:43:08 pm
; FORMAT={-:-/ absolute / inch / decimal}
; #@! TF.CreationDate,2022-01-31T22:43:08-05:00
; #@! TF.GenerationSoftware,Kicad,Pcbnew,(6.0.1-0)
; #@! TF.FileFunction,Plated,1,2,PTH
FMAT,2
INCH
; #@! TA.AperFunction,Plated,PTH,ComponentDrill
T1C0.0236
; #@! TA.AperFunction,Plated,PTH,ComponentDrill
T2C0.0256
; #@! TA.AperFunction,Plated,PTH,ComponentDrill
T3C0.0276
; #@! TA.AperFunction,Plated,PTH,ComponentDrill
T4C0.0315
; #@! TA.AperFunction,Plated,PTH,ComponentDrill
T5C0.0350
; #@! TA.AperFunction,Plated,PTH,ComponentDrill
T6C0.0394
; #@! TA.AperFunction,Plated,PTH,ComponentDrill
T7C0.0433
%
G90
G05
T2
X1.2496Y-4.3696
X1.2496Y-4.4196
X1.2496Y-4.4696
X1.2496Y-4.5196
X1.2496Y-4.5696
X1.2496Y-4.6196
X1.2496Y-4.6696
X1.2496Y-4.7196
T3
X1.5596Y-7.2676
X1.5596Y-7.4676
X1.5596Y-7.9176
X1.5596Y-8.1176
X1.5596Y-8.4176
X1.5596Y-8.6176
X1.6096Y-9.0176
X1.6096Y-9.2176
X1.7596Y-6.4176
X1.7596Y-6.6176
X1.7596Y-6.7176
X1.7596Y-6.9176
X2.355Y-6.4011
X2.355Y-6.6011
X2.355Y-6.718
X2.355Y-6.918
X2.5352Y-7.9176
X2.5352Y-8.1176
X2.5352Y-8.4696
X2.5352Y-8.6696
X2.5352Y-9.0676
X2.5352Y-9.2676
X2.5596Y-7.2676
X2.5596Y-7.4676
T4
X1.91Y-7.22
X1.91Y-7.32
X1.91Y-7.42
X1.91Y-7.52
X1.91Y-7.82
X1.91Y-7.92
X1.91Y-8.02
X1.91Y-8.12
X1.91Y-8.42
X1.91Y-8.52
X1.91Y-8.62
X1.91Y-8.72
X1.91Y-9.02
X1.91Y-9.12
X1.91Y-9.22
X1.91Y-9.32
X2.0096Y-3.9483
X2.1096Y-3.9483
X2.21Y-7.22
X2.21Y-7.32
X2.21Y-7.42
X2.21Y-7.52
X2.21Y-7.82
X2.21Y-7.92
X2.21Y-8.02
X2.21Y-8.12
X2.21Y-8.42
X2.21Y-8.52
X2.21Y-8.62
X2.21Y-8.72
X2.21Y-9.02
X2.21Y-9.12
X2.21Y-9.22
X2.21Y-9.32
T5
X2.425Y-0.6504
X2.425Y-0.8504
X2.525Y-0.8504
X2.625Y-0.6504
X2.625Y-0.8504
T6
X1.9004Y-1.175
X2.0004Y-1.175
X2.1004Y-1.175
X2.2004Y-1.175
T7
X1.2596Y-6.4696
X1.2596Y-6.5696
X1.2596Y-6.7696
X1.2596Y-6.8696
X1.2596Y-7.3196
X1.2596Y-7.4196
X1.2596Y-7.9696
X1.2596Y-8.0696
X1.2596Y-8.4696
X1.2596Y-8.5696
X1.2596Y-9.0696
X1.2596Y-9.1696
X1.7596Y-3.9196
X1.7596Y-4.0196
X1.7596Y-4.1196
X1.7596Y-4.2196
X1.7596Y-4.3196
X1.7596Y-4.4196
X1.7596Y-4.5196
X1.7596Y-4.6196
X1.7596Y-4.7196
X1.7596Y-4.8196
X1.7596Y-4.9196
X1.7596Y-5.0196
X1.7596Y-5.1196
X1.7596Y-5.2196
X1.7596Y-5.3196
X1.7596Y-5.4196
X1.7596Y-5.5196
X1.7596Y-5.6196
X1.7596Y-5.7196
X1.7596Y-5.8196
X1.7596Y-5.9196
X1.7596Y-6.0196
X1.7596Y-6.1196
X1.7596Y-6.2196
X2.2596Y-4.0196
X2.3596Y-3.9196
X2.3596Y-4.0196
X2.3596Y-4.1196
X2.3596Y-4.2196
X2.3596Y-4.3196
X2.3596Y-4.4196
X2.3596Y-4.5196
X2.3596Y-4.6196
X2.3596Y-4.7196
X2.3596Y-4.8196
X2.3596Y-4.9196
X2.3596Y-5.0196
X2.3596Y-5.1196
X2.3596Y-5.2196
X2.3596Y-5.3196
X2.3596Y-5.4196
X2.3596Y-5.5196
X2.3596Y-5.6196
X2.3596Y-5.7196
X2.3596Y-5.8196
X2.3596Y-5.9196
X2.3596Y-6.0196
X2.3596Y-6.1196
X2.3596Y-6.2196
X2.805Y-6.455
X2.805Y-6.555
X2.805Y-6.77
X2.805Y-6.87
X2.8352Y-7.9696
X2.8352Y-8.0696
X2.8352Y-8.5196
X2.8352Y-8.6196
X2.8352Y-9.1196
X2.8352Y-9.2196
X2.8596Y-7.3196
X2.8596Y-7.4196
T1
G00X1.8906Y-0.6546
M15
G01X1.8906Y-0.6271
M16
G05
G00X2.2194Y-0.6546
M15
G01X2.2194Y-0.6271
M16
G05
T2
G00X1.9674Y-0.7629
M15
G01X1.9674Y-0.755
M16
G05
G00X2.1426Y-0.7629
M15
G01X2.1426Y-0.755
M16
G05
T0
M30
