<?xml version="1.0" encoding="UTF-8" standalone="no"?>
<!-- Generator: Adobe Illustrator 16.0.0, SVG Export Plug-In . SVG Version: 6.00 Build 0)  -->

<svg
   version="1.1"
   id="Layer_1"
   x="0px"
   y="0px"
   width="708.66144"
   height="666.99011"
   viewBox="0 0 708.66139 666.99009"
   enable-background="new 0 0 563.788 538.888"
   xml:space="preserve"
   inkscape:version="1.1.1 (c3084ef, 2021-09-22)"
   sodipodi:docname="Logo_violon_de_jos_vecto contour.svg"
   inkscape:export-filename="/Users/gyome/Desktop/Le violon de Jos/Logo et modèles/Logo_violon_de_jos_HD_V06.png"
   inkscape:export-xdpi="599.91492"
   inkscape:export-ydpi="599.91492"
   xmlns:inkscape="http://www.inkscape.org/namespaces/inkscape"
   xmlns:sodipodi="http://sodipodi.sourceforge.net/DTD/sodipodi-0.dtd"
   xmlns="http://www.w3.org/2000/svg"
   xmlns:svg="http://www.w3.org/2000/svg"
   xmlns:rdf="http://www.w3.org/1999/02/22-rdf-syntax-ns#"
   xmlns:cc="http://creativecommons.org/ns#"
   xmlns:dc="http://purl.org/dc/elements/1.1/"><metadata
     id="metadata79"><rdf:RDF><cc:Work
         rdf:about=""><dc:format>image/svg+xml</dc:format><dc:type
           rdf:resource="http://purl.org/dc/dcmitype/StillImage" /></cc:Work></rdf:RDF></metadata><defs
     id="defs77" /><sodipodi:namedview
     pagecolor="#ffffff"
     bordercolor="#666666"
     borderopacity="1"
     objecttolerance="10"
     gridtolerance="10"
     guidetolerance="10"
     inkscape:pageopacity="0"
     inkscape:pageshadow="2"
     inkscape:window-width="1710"
     inkscape:window-height="1149"
     id="namedview75"
     showgrid="false"
     fit-margin-top="0"
     fit-margin-left="0"
     fit-margin-right="0"
     fit-margin-bottom="0"
     inkscape:zoom="0.43793887"
     inkscape:cx="-30.82622"
     inkscape:cy="-74.211271"
     inkscape:window-x="230"
     inkscape:window-y="52"
     inkscape:window-maximized="0"
     inkscape:current-layer="layer2"
     inkscape:pagecheckerboard="0" /><g
     inkscape:groupmode="layer"
     id="layer1"
     inkscape:label="Layer 1" /><g
     inkscape:groupmode="layer"
     id="layer2"
     inkscape:label="Layer 2"><g
       id="g2840"
       style="fill:#000000;fill-opacity:1;stroke-width:1.07312;stroke-miterlimit:4;stroke-dasharray:none"
       transform="matrix(0.93333333,0,0,0.93333333,21.964949,29.793387)"><path
         d="m 308.65545,439.94108 c -2.03709,-1.72572 -4.05095,-3.23921 -5.18955,-5.69611 -1.34308,-2.90305 -3.82167,-4.4847 -6.844,-5.28405 -6.80528,-1.80162 -13.55634,-1.78458 -20.28881,0.44615 -5.73019,1.89922 -10.9879,4.55441 -15.46795,8.6952 -5.52725,5.11209 -7.38619,11.43714 -6.35758,18.70406 0.80709,5.70076 2.69237,11.00029 5.65738,16.01788 3.96729,6.71233 8.47678,13.05598 12.78952,19.52509 5.97805,8.9663 6.94005,18.75208 5.96256,29.07851 -1.88992,19.97743 -8.02443,38.72796 -15.84438,57.08346 -4.4909,10.54176 -9.49455,20.73805 -15.89396,30.24809 -5.55669,8.2599 -12.19621,15.38895 -20.48244,21.03548 -17.18283,11.71444 -36.02785,19.46158 -56.31821,23.60547 -13.58732,2.77602 -27.14985,5.74878 -40.88278,7.74869 -7.69293,1.12001 -15.44317,1.84035 -23.15778,2.81785 -4.37006,0.55458 -8.74477,1.2207 -12.901055,2.72335 -1.465466,0.5298 -2.44296,0.39657 -3.439043,-0.7126 -0.774559,-0.8644 -1.690088,-1.60178 -2.450705,-2.47704 -1.657557,-1.90386 -1.333791,-3.68225 1.070441,-4.55286 2.889106,-1.0472 5.902141,-1.74895 8.949257,-2.6242 -10.363603,-1.2424 -20.94718,-0.93877 -30.717471,-4.78988 -9.652557,-3.80308 -18.883754,-8.50776 -26.962407,-15.27431 -7.965567,-6.6736 -13.895593,-15.15037 -20.733402,-22.85879 0.241662,2.9015 1.708678,5.17716 3.037821,7.48689 2.456902,4.26937 4.980416,8.47368 8.434951,12.08622 3.556776,3.71789 7.553501,6.75416 12.3,8.67662 2.078917,0.84117 3.406512,2.37325 4.638061,3.99053 1.614182,2.12229 0.790051,3.74886 -1.803174,4.45991 -4.686083,1.28422 -8.68126,-0.13013 -12.363514,-2.92164 -4.328238,-3.28103 -8.357495,-6.91062 -12.213251,-10.73074 -0.635138,-0.6274 -1.515038,-1.45308 -1.522783,-2.1951 -0.03253,-2.9991 -2.235378,-4.54822 -3.985882,-6.3266 -2.455353,-2.49718 -2.884459,-5.93623 -4.388653,-8.86406 -1.099874,-2.14088 -1.5692569,-4.63961 -2.7760202,-6.79908 -0.5081108,-0.91088 -0.9697481,-1.81092 -1.0022796,-2.90305 -0.065063,-2.24312 -0.9232747,-4.29416 -1.8140178,-6.29407 -1.0146726,-2.27875 -1.8295089,-4.56215 -1.7954283,-7.09651 0.00929,-0.63669 -0.130126,-1.28887 -0.2834887,-1.91316 -1.1045215,-4.52653 -2.2570657,-9.03136 -2.0820153,-13.76702 0.046474,-1.25943 -0.1812469,-2.68927 -0.771461,-3.77675 -1.10297237,-2.03244 -0.81018898,-4.01221 -0.35474814,-6.03536 0.25870279,-1.151 0.58711592,-2.2927 0.3175693,-3.45299 -1.44377845,-6.19183 0.0728086,-12.36971 0.0170403,-18.55379 -0.065063,-7.21115 1.96118404,-14.04741 3.33215394,-21.04013 2.6815241,-13.67097 7.4233755,-26.56893 12.5974315,-39.42661 3.006839,-7.4714 6.693741,-14.57566 10.103351,-21.82863 1.202116,-2.55605 2.878262,-4.9324 4.607078,-7.18481 1.120013,-1.45927 2.204396,-2.89995 2.723351,-4.64116 1.199017,-4.03391 3.724081,-7.16468 6.404056,-10.28925 1.570806,-1.83261 2.182708,-4.31274 3.604798,-6.36997 2.207494,-3.19583 4.779031,-6.11437 6.870341,-9.38146 0.869055,-1.35858 2.326776,-1.99372 3.394119,-3.13232 2.295793,-2.45071 3.772103,-5.46529 6.184081,-7.88037 4.37471,-4.37781 8.232015,-9.26683 12.409988,-13.85067 1.041007,-1.1417 1.858942,-2.08666 1.203665,-3.72098 -0.649081,-1.62193 0.393476,-2.11145 1.735013,-2.19975 3.457632,-0.22772 6.81767,-0.83342 10.40233,-0.35475 7.788968,1.03791 14.752252,-1.63896 21.089702,-6.11746 5.98734,-4.2322 9.94224,-10.05223 12.78642,-16.63754 1.23775,-2.86742 3.31047,-5.23447 4.31739,-8.22891 0.60261,-1.79079 0.59177,-3.21597 -0.61964,-4.6706 -0.66148,-0.7947 -1.19437,-1.69628 -1.76135,-2.56379 -0.99763,-1.52743 -2.05258,-2.9774 -0.8861,-4.99126 0.40123,-0.694 0.34391,-1.82176 0.14562,-2.66913 -1.22845,-5.2732 -0.93257,-10.79271 -3.00529,-15.96212 -2.46465,-6.1407 -2.32677,-12.61292 -1.86824,-19.15949 0.7064,-10.05068 4.78523,-19.04797 8.65493,-28.00807 1.95499,-4.52497 3.53044,-9.4775 7.00821,-13.29763 0.43375,-0.47713 0.70795,-1.12931 1.19747,-1.52278 5.65893,-4.54822 11.45108,-8.96165 18.20214,-11.74387 2.39029,-0.98369 4.76354,-2.05258 7.04694,-3.18654 10.11265,-5.02534 20.81861,-7.75179 31.97381,-8.9663 2.1889,-0.23856 4.38091,-0.45699 6.57291,-0.64908 7.72855,-0.67851 14.86534,1.65601 21.91228,4.37317 3.76591,1.45307 5.01759,1.33379 7.07792,-2.22454 3.65282,-6.30181 8.65338,-11.61839 12.51068,-17.74825 0.94651,-1.50419 2.3779,-2.83489 2.40423,-4.77903 0.0155,-1.17268 0.68781,-1.44997 1.60644,-1.83106 1.49025,-0.61655 2.67843,-1.4949 2.14863,-3.53664 -0.32377,-1.25013 0.65063,-2.29734 1.4856,-3.01303 3.99518,-3.42355 5.73639,-8.83772 10.38529,-11.66796 0.68316,-0.41671 0.99609,-1.18508 1.151,-1.96893 0.37024,-1.85894 1.52278,-3.28258 2.70631,-4.64271 2.29114,-2.6366 4.02616,-5.6202 5.92538,-8.5248 1.87133,-2.86122 3.92546,-5.62175 5.61865,-8.61465 3.17569,-5.61245 7.60617,-10.32797 11.1645,-15.66468 0.66457,-0.99763 1.58165,-1.69629 2.4569,-2.4662 2.16876,-1.90696 3.85111,-4.1315 4.7341,-6.95709 0.7947,-2.5421 3.22992,-3.91772 4.63032,-6.08649 2.65364,-4.11446 5.81384,-7.9098 8.36369,-12.08312 1.72262,-2.82095 4.24304,-4.85029 6.19338,-7.42957 4.15008,-5.49318 7.78277,-11.32096 11.49291,-17.09453 1.1417,-1.77683 1.58784,-4.00602 2.33452,-6.03536 0.268,-0.72964 0.45389,-1.48716 0.72499,-2.21524 1.52123,-4.09122 2.72025,-4.60088 6.1345,-1.99372 2.51113,1.91781 5.61711,3.13852 7.12285,6.37927 0.86596,1.86049 2.89375,1.73192 4.47695,0.0852 0.98524,-1.02551 1.81247,-2.20284 2.79461,-3.23301 1.03017,-1.08128 2.35776,-1.20521 3.54284,-0.41361 1.34463,0.89849 0.61035,2.12384 0.0217,3.09204 -1.68854,2.77602 -3.76591,5.267 -5.87271,7.73785 -1.05031,1.23 -2.54985,2.37789 -1.07509,4.3809 0.34235,0.46474 -0.0837,1.49026 -0.14252,2.25862 -0.14717,1.96273 -1.00383,4.00447 0.72189,5.75807 0.19209,0.19364 0.21533,0.79005 0.062,1.0503 -1.32139,2.23538 -2.807,4.36077 -4.75269,6.10353 -0.5329,0.47558 -1.26563,0.38573 -1.70868,-0.22617 -0.61035,-0.84427 -1.21761,-1.76135 -0.49572,-2.83953 0.61345,-0.91708 1.89148,-1.47631 1.42364,-3.343 -1.78303,1.46392 -2.76672,3.06725 -2.8101,5.19264 -0.0325,1.59405 -0.36714,3.06726 -1.17578,4.45372 -1.11846,1.91781 -1.11072,1.9302 -2.76518,-0.63514 -3.38947,5.05477 -6.73711,9.95928 -9.99336,14.92266 -8.2537,12.58039 -16.53219,25.14374 -24.67591,37.79384 -8.4303,13.09625 -15.70806,26.86172 -23.20889,40.49551 -3.2516,5.90679 -6.57911,11.7733 -9.86324,17.6615 -1.80007,3.22681 -1.5832,4.09122 1.89147,5.53965 2.26017,0.94186 4.67834,1.50419 7.01441,2.26946 1.23,0.40277 2.52352,0.71879 3.64043,1.34153 3.71169,2.06808 7.5566,3.2609 11.88174,2.77138 2.02935,-0.22927 3.84491,0.62119 5.188,2.19355 2.58083,3.02078 5.78286,5.68216 5.68836,10.24122 -0.0248,1.17888 0.81794,2.17341 1.64207,3.02078 8.074,8.29398 11.46812,18.58323 12.88557,29.77871 1.27492,10.05842 2.24312,20.2005 1.37406,30.25893 -1.00228,11.58276 -2.52971,23.17326 -7.96092,33.85443 -4.35612,8.56818 -8.54648,17.19367 -14.65776,24.69605 -1.2269,1.50729 -2.50957,2.97121 -3.80618,4.41809 -1.40195,1.56616 -1.60179,3.10598 -0.32841,4.89831 3.20048,4.51103 7.3707,7.995 11.75626,11.2435 1.41279,1.04566 2.26636,0.11928 3.13696,-1.07199 3.99208,-5.46064 7.2003,-11.37518 10.38994,-17.32069 4.67679,-8.72154 7.66504,-18.00696 10.39768,-27.48446 2.04949,-7.11201 3.56143,-14.31386 5.20659,-21.50022 1.76445,-7.70686 1.01003,-15.49118 -0.13632,-23.17636 -1.55377,-10.40388 -4.32514,-20.52582 -8.01979,-30.38751 -1.42674,-3.80618 -3.40031,-7.27466 -6.16704,-10.26911 -1.42364,-1.53982 -2.60097,-3.21287 -3.21597,-5.2608 -0.37179,-1.23465 -0.43375,-2.35001 0.81019,-3.05951 1.1417,-0.65063 1.90851,0.1797 2.7218,0.85201 7.2096,5.96876 11.71134,13.73294 14.36653,22.52729 2.65983,8.80828 5.35995,17.63671 6.96328,26.71454 1.9333,10.94298 2.22764,21.85962 -0.68006,32.7778 -2.40113,9.01587 -4.3933,18.14793 -7.35831,27.00424 -3.89294,11.62768 -9.54412,22.43588 -16.31997,32.61049 -1.95963,2.94332 -2.58393,5.80145 -1.16648,8.69985 1.48096,3.01303 1.03326,5.55514 -0.43995,8.49382 z M 73.160003,566.56912 c -0.926373,1.68234 -1.832607,3.36159 -2.768275,5.02534 -1.33534,2.3717 -2.659836,4.75115 -4.052494,7.09032 -0.670768,1.12621 -1.52743,2.36705 -3.030075,1.97822 -1.96893,-0.50811 -4.116008,-0.83962 -5.505567,-2.58703 -0.426008,-0.53754 -0.249409,-1.26253 0.05422,-1.85584 0.354748,-0.68936 0.800894,-1.33069 1.181977,-2.00921 2.162569,-3.83562 4.865781,-7.48224 6.312658,-11.57191 1.333791,-3.77056 3.346096,-7.17552 4.912255,-10.78342 2.30199,-5.30108 4.930844,-10.50922 7.734748,-15.62286 4.249232,-7.75179 7.877268,-15.84593 12.174523,-23.59462 0.576272,-1.04101 1.710227,-1.07354 2.142431,-2.06188 0.61345,-1.3973 -0.14097,-2.79925 0.154911,-4.22599 0.401222,-1.93175 2.960366,-1.18508 3.338351,-2.89066 0.692456,-3.11992 3.107531,-5.30883 4.252334,-8.22272 1.86978,-4.75734 3.4979,-9.66495 6.765,-13.77631 0.6026,-0.75597 1.1293,-2.04174 0.91398,-2.88756 -0.56233,-2.22143 0.66612,-3.70859 1.58319,-5.38318 1.31521,-2.39959 2.23228,-4.97422 3.8697,-7.25298 2.03245,-2.82869 1.64052,-7.09961 5.23602,-9.08713 0.42911,-0.23701 0.3625,-0.62894 0.19519,-1.00847 -0.7064,-1.60489 0.42446,-2.70321 1.10452,-3.90688 1.64672,-2.91699 2.92009,-6.08803 5.67752,-8.2568 0.37334,-0.29278 0.69091,-0.84737 0.75597,-1.3183 0.536,-3.88209 3.86041,-6.23365 5.26081,-9.67889 0.7095,-1.74586 1.87598,-3.22682 2.24467,-5.24377 0.37179,-2.03864 0.88145,-4.36851 3.62959,-4.99281 1.00228,-0.22617 1.67924,-1.25633 1.924,-2.30199 1.17268,-5.01759 3.83097,-9.21415 6.83161,-13.32706 1.34464,-1.84191 3.12613,-3.58312 3.64508,-5.90989 1.36477,-6.12367 6.26773,-10.24897 8.77266,-15.78397 1.50574,-3.32441 3.97968,-6.34519 5.74568,-9.65411 1.73811,-3.25934 3.89448,-6.33589 4.67989,-10.05068 0.0991,-0.47248 0.4291,-1.06114 0.82568,-1.27957 4.02151,-2.22763 4.01996,-6.82696 5.83553,-10.28615 1.09987,-2.09595 1.74895,-4.57299 3.20357,-6.52798 2.07582,-2.78996 4.34218,-5.4436 6.63952,-8.05697 0.7947,-0.90313 1.70713,-1.71177 1.57546,-2.96966 -0.24012,-2.26946 0.86131,-3.97349 2.04793,-5.70695 1.02087,-1.4887 2.04329,-2.98825 2.9046,-4.57145 2.16412,-3.98433 4.33753,-7.95627 7.34902,-11.38602 0.41671,-0.47403 0.85821,-0.84272 1.12621,-1.4949 1.71177,-4.17797 3.58466,-8.27074 7.75024,-10.68272 0.48487,-0.28194 0.82413,-0.66612 0.59486,-1.26408 -0.63359,-1.65601 0.67851,-2.6397 1.3121,-3.85266 2.60562,-4.99126 6.56671,-9.13515 8.93996,-14.26893 0.59177,-1.28112 1.43139,-2.11145 2.89841,-2.16412 -0.5422,-1.17268 -0.63824,-2.25861 0.30517,-3.34299 1.8419,-2.1192 3.02233,-4.8348 5.87426,-6.02453 1.41279,-0.58866 2.26791,-1.95653 2.13933,-3.43439 -0.11928,-1.36013 -0.0821,-2.51112 0.69091,-3.66367 0.40587,-0.60415 0.15956,-1.27027 -0.45699,-1.67614 -0.6243,-0.41052 -1.29197,-0.27884 -1.76445,0.23236 -0.6119,0.66303 -1.15254,1.40041 -1.65755,2.15173 -9.84001,14.63452 -19.67226,29.27369 -29.50142,43.91596 -8.60845,12.81896 -16.60345,26.01745 -24.26694,39.41887 -10.1049,17.67234 -20.23613,35.3292 -30.23414,53.06196 -7.25608,12.87317 -14.46722,25.77423 -21.41502,38.81471 -8.83927,16.58796 -18.2734,32.8537 -26.666523,49.68333 -4.280215,8.58521 -8.92757,16.98608 -13.294535,25.52947 -7.25762,14.19922 -14.426941,28.44491 -21.622596,42.67821 -4.506386,8.91053 -8.828427,17.90472 -12.383653,27.249 -0.562331,1.47476 -1.211411,2.85038 0.240113,4.26782 0.831877,0.81329 0.785403,1.91316 -0.0093,2.81785 -0.774559,0.88145 -1.79233,0.89849 -2.867418,0.63978 -3.840265,-0.92792 -5.727091,-4.31119 -4.337532,-8.01978 3.490164,-9.3133 6.641071,-18.76912 12.047495,-27.2521 2.858123,-4.48624 4.859584,-9.44342 7.262267,-14.17753 1.285768,-2.53591 3.112179,-4.80072 3.896033,-7.58448 0.641335,-2.27721 1.70558,-4.305 3.016134,-6.27238 1.217607,-1.82796 2.257066,-3.78915 1.330693,-6.17789 -0.632041,-1.63277 0.303627,-3.03007 1.01932,-4.39485 0.478677,-0.91398 1.163388,-1.71797 1.660655,-2.62265 3.74267,-6.80993 7.466751,-13.6276 11.186184,-20.44837 3.099786,-5.68681 5.841726,-11.55952 8.898137,-17.27267 2.497179,-4.66749 4.523426,-9.60608 7.217343,-14.17908 2.892213,-4.91226 5.370793,-10.05378 7.900513,-15.13024 3.41115,-6.84711 7.2855,-13.42466 10.84228,-20.18037 4.70002,-8.93067 9.7486,-17.68164 14.84985,-26.39078 2.68617,-4.58539 4.84409,-9.50075 7.75798,-13.88785 4.59314,-6.91836 8.72309,-14.09233 12.90416,-21.24151 1.55996,-2.66913 2.78996,-5.54585 4.85184,-7.88192 1.17113,-1.32449 0.67077,-3.20357 1.9364,-4.52342 3.98278,-4.15319 5.99818,-9.60918 9.16303,-14.3247 2.13314,-3.17879 3.7814,-6.76035 5.75653,-10.06153 6.90442,-11.54713 14.14655,-22.89132 21.28488,-34.29903 6.98808,-11.16759 14.36498,-22.07958 21.82708,-32.93581 0.36405,-0.53135 0.8892,-1.00383 1.08594,-1.59094 0.3439,-1.02552 0.38882,-1.99836 -0.98989,-2.49253 -1.24859,-0.4477 -2.50957,-0.58247 -3.80464,-0.70021 -2.83953,-0.26025 -5.69765,-0.44149 -8.50466,-0.90778 -10.4488,-1.73656 -20.49948,-0.22152 -29.95065,4.27247 -15.79636,7.51168 -27.09409,19.83182 -35.37412,34.97135 -7.63871,13.9653 -9.51004,29.29228 -8.93842,44.86402 0.24786,6.74486 1.0503,13.95291 8.62859,17.49729 1.20522,0.56233 1.25014,1.91007 0.40742,3.03318 -0.46319,0.61965 -0.94496,1.28732 -1.56771,1.71642 -2.43056,1.67305 -3.32286,4.17643 -4.06179,6.85795 -0.9651,3.50256 -2.21059,6.91836 -3.73957,10.21953 -5.78905,12.49055 -15.05433,20.57849 -28.95457,22.73642 -4.12376,0.63978 -8.286242,0.44924 -12.425486,0.27419 -3.46228,-0.14871 -6.363779,0.883 -8.829976,3.26709 -1.118463,1.08129 -2.278753,2.12229 -3.361587,3.23766 -5.158564,5.30883 -9.64791,11.19703 -14.47961,16.7878 -11.403062,13.19539 -21.257004,27.47826 -29.82363,42.64723 -8.59296,15.21389 -14.710429,31.45175 -19.574661,48.19307 -3.4158064,11.75317 -5.7224438,23.638 -5.6759703,35.97209 0.057317,15.49428 0.8458187,30.84604 5.7208943,45.71913 0.610353,1.85894 1.374068,3.63423 2.213691,5.38938 0.505012,1.05805 1.347733,1.80628 2.453803,1.42984 3.085844,-1.0534 4.521877,0.77766 5.939321,2.9867 3.590856,5.58767 8.025983,10.455 12.637708,15.23403 8.359044,8.66267 18.885304,13.50986 29.794197,17.78233 1.680793,0.65838 3.463829,1.16959 5.246864,1.43139 11.166046,1.64671 22.397155,2.66138 33.674742,3.06261 9.92675,0.35319 19.57621,-1.59095 29.12343,-4.00138 7.52716,-1.89922 15.0187,-3.96109 22.45292,-6.19647 5.4467,-1.63742 10.88566,-3.27639 15.9962,-5.96721 5.73793,-3.02078 11.33025,-6.25069 16.91327,-9.54102 7.70067,-4.53891 14.70114,-10.04293 21.11139,-16.08604 5.78286,-5.45135 10.91044,-11.70359 15.78242,-18.06737 4.98971,-6.51869 9.03446,-13.66168 11.7702,-21.33291 3.73803,-10.47979 6.78204,-21.21518 8.0043,-32.35644 0.24011,-2.18581 1.29041,-4.31275 0.86596,-6.52179 -0.54529,-2.84263 -1.92711,-5.64809 0.39502,-8.342 0.11928,-0.13788 -0.0263,-0.50037 -0.0418,-0.75752 -0.51275,-9.06699 -1.24549,-18.02864 -5.16011,-26.49922 -2.64899,-5.73174 -6.26928,-9.44033 -12.77558,-10.57584 -6.87034,-1.20056 -13.06217,-4.25233 -17.94654,-9.45581 -7.69292,-8.19174 -13.7856,-17.15959 -14.04276,-28.98556 -0.0341,-1.58475 -0.14406,-3.30427 0.5391,-4.57455 2.4507,-4.55441 3.40031,-9.73156 6.17323,-14.145 5.51642,-8.77885 11.36589,-17.32224 19.13936,-24.2561 3.95955,-3.53199 8.63324,-6.13141 13.9684,-7.2855 8.83153,-1.90697 17.50814,-0.64134 26.17081,1.14325 3.79999,0.78385 7.59998,1.56771 11.40306,2.34072 1.20367,0.24476 2.59633,0.24786 3.20358,-0.82723 1.43294,-2.54366 3.87899,-4.12685 5.58612,-6.40561 3.41116,-4.55131 6.14536,-9.44807 8.75252,-14.5013 3.56762,-6.91681 7.3041,-13.66167 8.81139,-21.43825 1.30436,-6.72317 3.00529,-13.34875 2.72335,-20.29965 -0.15027,-3.73182 -0.0217,-7.50547 0.37488,-11.21716 0.26181,-2.4569 -0.26954,-4.4878 -2.05877,-5.94087 -2.05723,-1.6715 -2.96657,-3.83407 -3.71944,-6.21507 -1.05495,-3.33835 -2.15637,-6.6643 -3.34919,-9.95618 -1.76909,-4.87353 -3.48862,-9.76254 -6.37772,-14.1543 -1.34309,-2.04173 -2.95107,-3.5986 -5.22518,-4.43357 -6.56516,-2.40888 -12.9181,-5.43276 -19.81942,-6.86725 -1.03016,-0.21377 -2.1982,-0.36714 -2.68772,-1.35547 -0.92483,-1.87134 -2.88911,-2.53901 -4.22135,-3.94716 -1.88063,-1.98752 -2.59322,-1.79698 -4.02616,0.71724 -4.55905,8.0012 -9.19711,15.95902 -13.57183,24.05936 -9.86168,18.25327 -19.42594,36.66454 -28.8074,55.17031 -1.8543,3.65902 -3.73028,7.30874 -5.66358,11.09324 1.49335,0.0325 1.89922,-1.77684 3.53974,-1.18973 -1.07354,3.6048 -3.14472,6.73092 -4.74495,10.06153 -0.31448,0.65528 -0.536,1.56926 -1.5104,1.56771 -1.06579,-0.002 -0.3501,-1.81092 -1.73191,-1.72417 -0.59641,1.10762 -1.21296,2.24002 -1.81712,3.38017 -5.59231,10.54021 -11.03437,21.16096 -16.80638,31.60047 -8.40707,15.2015 -17.11002,30.23415 -26.366,44.94458 -6.07564,9.6572 -11.89568,19.47706 -17.79627,29.24426 -4.35457,7.20495 -9.31795,14.06754 -12.48125,21.94946 -1.93175,4.81156 -3.81393,9.64481 -5.76272,14.44863 -3.45918,8.52479 -6.93076,17.0465 -10.43951,25.55116 -2.57154,6.23055 -5.16011,12.45801 -7.84474,18.64209 -1.048754,2.41662 -1.900769,2.72954 -3.824774,1.98132 -2.415076,-0.93567 -2.676877,-1.48251 -1.815567,-4.10981 0.402771,-1.2269 0.892292,-2.42747 1.372519,-3.62959 3.953352,-9.86788 8.850122,-19.33609 12.444072,-29.35579 0.26645,-0.74203 0.92792,-1.46857 0.0898,-2.67223 -4.88282,6.92301 -9.378368,13.73293 -14.327801,20.19586 -5.796802,7.57209 -9.178528,16.48881 -14.239498,24.47607 -3.535088,5.56288 -2.91699,4.31894 -7.570542,1.33379 z m 104.972917,74.84411 c 1.26253,0.63359 2.07737,0.0883 2.91699,-0.16885 10.45965,-3.20978 20.37401,-7.57364 29.79265,-13.20934 9.07783,-5.43275 17.55926,-11.45573 24.34285,-19.69549 2.48478,-3.01613 4.7341,-6.1531 6.71852,-9.51159 3.49481,-5.91143 6.65811,-11.97313 9.65101,-18.16806 5.03154,-10.41007 9.58749,-21.0045 12.89176,-32.04196 3.56762,-11.91118 6.03227,-24.07176 6.4242,-36.63201 0.21068,-6.72163 -0.77766,-12.91965 -4.27402,-18.60801 -4.34218,-7.06708 -8.83462,-14.04121 -13.31932,-21.01999 -4.31429,-6.71388 -6.61164,-14.09078 -6.94935,-21.99748 -0.29278,-6.87189 1.79853,-12.96767 6.82387,-17.94654 8.70295,-8.61775 19.11612,-13.06836 31.36345,-13.28369 1.17424,-0.0217 2.51422,0.53289 3.71944,-0.57163 -3.43285,-3.79998 -6.71853,-7.45435 -10.0259,-11.08549 -0.89074,-0.97904 -2.0154,-1.62038 -3.29187,-1.98752 -9.10107,-2.6242 -18.17116,-4.92929 -27.86865,-4.01067 -7.22818,0.68317 -13.18919,3.51805 -18.4376,8.23202 -6.52644,5.86496 -11.73767,12.8205 -16.12168,20.36006 -4.94169,8.49847 -7.06863,17.34703 -3.5134,27.14521 3.04712,8.39622 8.28314,13.85376 17.19831,15.5485 2.54366,0.48487 5.06252,1.12156 7.56125,1.79853 1.61883,0.43995 3.18809,1.00228 4.45217,2.25861 2.57773,2.5576 5.26235,5.0145 7.47449,7.91135 10.23813,13.41692 12.64236,28.96852 12.08932,45.24355 -0.19828,5.83244 -1.44842,11.56417 -2.61336,17.28662 -1.84035,9.03136 -4.05714,17.95893 -7.13369,26.65413 -5.46064,15.43387 -15.50203,27.78809 -26.8896,39.09356 -9.73311,9.66495 -21.32207,16.84356 -33.27971,23.4552 -3.11218,1.72262 -6.43969,3.05486 -9.70213,4.95098 z m 18.33227,-304.78287 c -35.01628,55.40423 -65.80346,112.58529 -94.25302,171.06606 6.54038,-8.23356 12.24423,-17.03566 17.38421,-26.13828 5.7147,-10.12348 10.7168,-20.6451 16.20688,-30.90491 3.09359,-5.77821 5.81539,-11.78105 8.87335,-17.60263 4.45371,-8.47833 9.01122,-16.91018 13.15356,-25.54187 3.40806,-7.10116 6.84556,-14.15739 11.17999,-20.74579 0.21068,-0.31912 0.38728,-0.68007 0.49107,-1.04876 1.28112,-4.54356 3.81703,-8.45818 6.27858,-12.39449 3.70084,-5.91299 6.65656,-12.25353 10.59287,-18.04569 1.30281,-1.91626 3.1633,-3.501 3.94561,-5.72709 1.30745,-3.72098 3.26709,-7.00201 5.9672,-9.86788 0.61655,-0.65528 1.13241,-1.44843 0.1797,-3.04867 z m -49.80881,-65.78331 c -5.01295,2.60252 -9.86633,5.30728 -12.61292,10.50767 -4.54976,8.61 -8.19484,17.59334 -11.1676,26.85861 -0.91398,2.84573 -1.18043,5.75653 -0.66922,8.90589 3.15556,-18.1061 12.55716,-32.80259 24.44974,-46.27217 z m 104.71267,-40.48467 c -5.76582,8.12203 -11.55023,16.23167 -17.27577,24.38003 -0.67387,0.95736 -2.30974,2.30664 -0.84117,3.2454 1.33069,0.85202 1.96583,-1.15719 2.69701,-2.11299 4.79917,-6.27084 8.36524,-13.35186 12.90416,-19.80548 1.14789,-1.63278 2.53745,-3.28104 2.51577,-5.70696 z m 77.82771,-104.77772 c -3.35074,2.37324 -9.24824,10.46894 -9.9376,13.18144 4.76354,-3.46073 7.20805,-8.421 9.9376,-13.18144 z m -57.36231,144.24926 c 3.89913,1.39576 7.41253,3.71944 11.45108,4.78058 -3.45763,-2.45225 -6.85484,-5.05012 -11.45108,-4.78058 z m -71.79699,60.98105 c 4.49244,-3.75041 6.28012,-6.81147 6.46911,-10.27375 -2.27255,3.6079 -4.37161,6.9416 -6.46911,10.27375 z m 62.45581,-66.87235 c -1.61728,-0.67696 -2.78842,-1.20211 -3.98743,-1.65445 -0.83343,-0.31447 -1.57856,-0.14717 -1.84036,0.81483 -0.28968,1.05805 0.57627,1.33379 1.28887,1.5801 1.40505,0.48333 2.78841,0.42291 4.53892,-0.74048 z"
         id="path5"
         inkscape:connector-curvature="0"
         style="clip-rule:evenodd;fill:#000000;fill-opacity:1;fill-rule:evenodd;stroke:none;stroke-width:1.07311;stroke-miterlimit:4;stroke-dasharray:none;stroke-opacity:1" /><path
         d="m 472.14632,640.57051 c -4.99281,0.17195 -9.87873,-1.70558 -14.5013,-4.97112 -8.98954,-6.34984 -14.4068,-15.08687 -17.75135,-25.3064 -1.0534,-3.21752 -1.51659,-6.53263 -0.99763,-9.97013 0.50346,-3.32595 0.62119,-6.71233 1.1417,-10.03674 1.47476,-9.44807 7.4652,-15.05743 15.9931,-18.41747 1.32914,-0.5236 2.59167,-0.32531 3.59705,0.69866 3.38327,3.44524 5.64499,7.42492 5.60316,12.41153 -0.0217,2.60717 -0.88764,4.00912 -3.09359,4.16558 -5.80454,0.41207 -8.48297,4.32359 -9.79353,9.12586 -1.29041,4.72636 -1.80162,9.68819 -1.82795,14.62523 -0.0217,4.29261 0.88454,5.23447 4.92929,6.82542 4.81311,1.89302 9.90351,3.13076 14.31386,6.00438 1.6591,1.07973 3.52734,0.57162 5.31502,0.32067 4.01532,-0.56698 7.68673,-2.31439 11.53319,-3.46073 5.83398,-1.73966 11.65711,-3.64663 16.95975,-6.69375 5.42346,-3.11682 10.00885,-7.18016 14.0567,-12.07228 4.88902,-5.90679 8.28933,-12.56025 10.98635,-19.54368 2.08511,-5.39093 3.68845,-11.11027 0.98369,-16.97214 -0.97595,-2.11454 -1.27183,-4.4692 -1.69319,-6.77429 -1.4949,-8.18245 -3.96419,-16.09999 -6.73092,-23.93233 -0.45389,-1.28422 -0.93567,-2.38255 -2.2865,-2.92939 -1.85894,-0.75132 -2.59012,-2.43211 -3.28878,-4.13459 -2.61956,-6.38547 -4.06488,-13.11639 -5.75342,-19.76986 -2.13779,-8.42565 -4.78523,-16.67316 -8.15766,-24.6852 -0.10069,-0.23856 -0.21998,-0.47093 -0.32377,-0.70795 -2.03554,-4.63341 -1.66685,-5.45444 3.15711,-6.77429 0.77456,-0.21378 1.39111,-0.60106 2.04948,-1.02397 2.04484,-1.3152 2.98515,-1.26563 4.73411,0.45854 1.94724,1.92091 3.46847,4.17178 4.71242,6.62713 3.59085,7.09032 5.84792,14.6686 8.30792,22.18338 1.72572,5.27939 3.87899,10.41937 5.64808,15.68482 1.56771,4.6644 2.9077,9.40625 4.27557,14.13416 1.22226,4.22909 2.46,8.46128 3.48552,12.7415 1.78148,7.41873 2.92318,14.91026 3.35694,22.5722 0.42291,7.4807 -0.65993,14.69494 -1.95809,21.96186 -0.48797,2.74194 -2.03864,5.02689 -2.92473,7.58603 -2.18271,6.3235 -5.66358,11.72993 -10.1204,16.79399 -3.53199,4.01377 -7.87262,7.09807 -11.31321,11.13662 -0.40122,0.47093 -1.01467,0.85356 -1.60643,1.0503 -4.04785,1.35393 -7.76728,3.62803 -11.98553,4.47076 -4.0525,0.80709 -8.01204,2.1006 -11.95145,3.19273 -2.9898,0.82878 -6.2352,1.05185 -9.12431,2.53745 -2.21524,1.14016 -4.83635,0.67542 -7.95627,0.86751 z"
         id="path7"
         inkscape:connector-curvature="0"
         style="clip-rule:evenodd;fill:#000000;fill-opacity:1;fill-rule:evenodd;stroke:none;stroke-width:1.07311;stroke-miterlimit:4;stroke-dasharray:none;stroke-opacity:1" /><path
         d="m 373.33424,76.367611 c -2.36395,2.844182 -3.44833,5.933124 -5.0083,8.727734 -0.58092,1.041008 -0.40587,2.339169 0.63824,3.181889 0.89849,0.728086 1.62812,1.44223 0.65993,2.539006 -0.98834,1.120012 -2.03555,0.852015 -3.03628,-0.0821 -0.29123,-0.274194 -0.66457,-0.382632 -1.32294,-0.0031 0.25715,3.973489 -1.90387,7.085668 -4.38711,10.13433 -1.64361,2.0185 -1.498,2.71716 0.25096,4.71397 2.55604,2.92319 4.81311,6.12986 7.91445,8.54339 0.91707,0.71414 1.91161,1.33379 2.91079,1.93485 0.94806,0.57007 1.71642,0.426 2.15173,-0.71415 0.22926,-0.60415 0.61345,-1.15719 0.79159,-1.77219 1.05495,-3.60015 4.17488,-5.40797 6.6891,-7.7239 1.27957,-1.18043 2.68462,-1.00848 4.32359,-0.40897 9.37526,3.43749 10.0197,13.72829 6.90132,20.52117 -0.53754,1.17268 -1.19747,2.2958 -1.86669,3.40342 -1.37406,2.27875 -2.91389,2.83953 -5.18954,1.37097 -7.3924,-4.77284 -15.23558,-8.89659 -21.90764,-14.72438 -5.02844,-4.39175 -8.90123,-9.68973 -11.84766,-15.68017 -0.6088,-1.236198 -0.2494,-2.421274 0.31448,-3.338352 4.5544,-7.412532 7.0175,-15.867621 11.6695,-23.230581 1.37717,-2.17961 2.61182,-4.470756 3.69155,-6.811474 1.0627,-2.305088 0.83188,-2.845731 -1.51658,-3.885189 -2.9867,-1.321398 -5.38939,-3.522696 -8.12358,-5.222079 -7.36761,-4.579194 -14.7569,-9.175429 -21.47388,-14.722822 -1.50729,-1.243942 -3.10443,-2.345365 -4.8348,-3.246952 -3.15555,-1.645164 -5.7054,-4.058691 -8.13442,-6.574459 -2.37945,-2.466197 -2.192,-3.855756 0.4446,-6.050857 0.59641,-0.497267 1.21296,-0.98369 1.73656,-1.552217 3.90068,-4.229093 8.57282,-4.929295 13.84137,-3.12767 3.422,1.169584 5.0997,3.329056 4.99591,6.978779 -0.0852,2.995995 -0.66302,5.942418 -2.08511,8.623942 -0.86596,1.632771 -0.82104,2.789963 0.8675,3.913074 6.47067,4.306549 12.59124,9.142897 19.49876,12.789522 2.07736,1.096776 4.27866,1.852746 6.45053,2.701663 1.86359,0.728085 3.41425,0.311373 4.31584,-1.429837 2.04484,-3.947154 4.9262,-7.288602 7.5628,-10.811298 1.18042,-1.577002 1.23155,-3.124572 0.58866,-5.081108 -1.24704,-3.784497 -2.49098,-7.61082 -2.49253,-11.703591 -0.002,-2.365504 -0.83033,-4.560604 -1.92555,-6.667406 -0.4477,-0.85976 -1.21606,-1.893022 -0.29898,-2.851927 0.79624,-0.831876 1.924,-0.64908 2.94642,-0.424458 1.39111,0.303627 2.75588,0.743577 4.15319,1.014672 2.00765,0.388829 3.94405,-0.267997 4.54666,-2.130038 1.33534,-4.120655 4.65045,-6.80063 6.82541,-10.2845973 0.54839,-0.8783502 1.0658,-1.7752898 1.61883,-2.6489926 0.81019,-1.281121 0.73429,-3.3522925 2.42128,-3.78449654 1.97047,-0.50501263 4.11755,-1.08593207 6.12986,-0.56852649 9.28232,2.39183893 17.8257,6.20267043 24.72703,13.15511393 2.14553,2.161021 2.48323,4.286411 1.20366,6.986525 -1.21606,2.569987 -2.24932,5.21898 -2.91389,8.022885 -0.60571,2.554496 -2.73729,3.995176 -4.74495,5.454446 -6.4056,4.655101 -12.58969,9.572003 -18.05343,15.339371 -1.87288,1.978224 -3.68535,3.998275 -5.3615,6.153099 -2.08976,2.684622 -3.18963,2.788413 -5.82313,0.782305 -1.44223,-1.098325 -2.83954,-2.261713 -4.19347,-3.468477 -1.15099,-1.023967 -2.07581,-0.838073 -2.92473,0.325315 -1.67925,2.305089 -3.36004,4.610177 -5.01295,6.932306 -0.44615,0.625843 -0.65218,1.233098 -0.42291,2.133136 0.71569,2.813199 0.65683,3.206675 -2.08666,4.305 -2.6428,1.058048 -3.51805,3.270189 -4.58694,5.469937 -0.47403,0.975945 -0.27729,1.883729 0.73428,2.269459 4.73566,1.806272 8.8687,4.830152 13.61675,6.622482 1.90852,0.72034 3.13542,0.604156 4.07264,-1.409698 1.21605,-2.614912 3.60324,-4.387104 5.19729,-6.760353 1.0472,-1.558414 2.58238,-1.00228 3.81393,-0.226172 2.29734,1.449975 4.56215,2.97121 6.70303,4.641159 1.35858,1.061147 2.65364,1.271827 3.81083,0.102242 3.06881,-3.102884 5.85412,-1.747405 8.6193,0.365592 5.64499,4.312746 4.87508,5.572179 0.3563,8.929119 -4.57765,3.401864 -9.29781,6.588401 -14.76155,8.520152 -4.77748,1.690088 -8.72309,0.649081 -11.72838,-3.349194 -1.39111,-1.852746 -3.12147,-2.985152 -5.15856,-3.920819 -3.76281,-1.730366 -7.26227,-3.98898 -11.13662,-5.516411 -2.60871,-1.027066 -4.19346,-3.346096 -6.34519,-5.693011 z m 21.1749,-31.33247 c 6.11592,-5.959459 13.00176,-10.969309 19.61649,-16.304473 2.36241,-1.903866 5.19575,-3.575365 5.21124,-7.256071 0.003,-0.415163 0.58711,-0.824131 0.89074,-1.242393 1.11537,-1.535176 1.13086,-3.422002 1.62193,-5.155466 0.23237,-0.819484 -0.0201,-1.646713 -0.75133,-2.044837 -3.28258,-1.781486 -5.93002,-4.7031233 -9.69748,-5.5861208 -3.08894,-0.7249875 -6.25224,-1.163388 -8.61155,1.7117759 -2.62885,3.2082249 -5.15856,6.5001009 -7.69602,9.7826829 -0.43995,0.570076 -1.09987,1.180429 -0.37953,2.260164 2.55295,-0.342355 4.25698,-1.987519 5.74723,-3.981234 2.09596,-2.802356 2.1006,-2.791512 5.56598,-1.575454 0.48642,0.170403 1.0472,0.179698 1.4949,0.412066 4.02306,2.094408 5.04083,4.349925 2.43521,7.489988 -2.23228,2.690819 -4.24768,5.569081 -6.26928,8.427204 -3.05331,4.322041 -6.78514,8.145265 -9.17853,13.062168 z M 387.0393,32.285895 c -0.13788,0.652179 -0.2804,1.199018 0.13322,1.595592 0.56543,0.543741 1.22071,0.243212 1.76909,-0.04337 1.73502,-0.907783 3.09514,-2.255516 4.21051,-3.84801 1.64981,-2.359308 1.15719,-3.394119 -1.64362,-3.719434 -1.18817,-0.137871 -1.9271,0.295882 -2.59477,1.200567 -1.09833,1.490252 -1.64362,3.169496 -1.87443,4.81466 z m -52.7258,1.267179 c 1.54137,-0.226171 2.12849,-1.333791 2.38254,-2.630403 0.19674,-1.006927 -0.56233,-1.330693 -1.38801,-1.349282 -1.1417,-0.02633 -2.52041,-0.114635 -2.72025,1.384912 -0.15801,1.166486 0.4446,2.201297 1.72572,2.594773 z"
         id="path9"
         inkscape:connector-curvature="0"
         style="clip-rule:evenodd;fill:#000000;fill-opacity:1;fill-rule:evenodd;stroke:none;stroke-width:1.07311;stroke-miterlimit:4;stroke-dasharray:none;stroke-opacity:1" /><path
         d="m 620.70523,408.51721 c -1.02242,2.16566 -2.68307,3.5986 -4.23064,5.15546 -3.93631,3.9611 -7.13214,8.5372 -10.47514,12.98007 -2.9805,3.96419 -6.37462,7.47759 -10.3636,10.42092 -0.31138,0.23082 -0.60416,0.54839 -0.95581,0.65682 -4.95873,1.53673 -10.09251,2.91699 -15.20924,2.34692 -4.43978,-0.49417 -8.80829,-2.14398 -12.73376,-4.54976 -4.18262,-2.56224 -7.2886,-5.96721 -9.55806,-10.43796 -2.77137,-5.46219 -4.31584,-11.09479 -4.17642,-17.15339 0.1766,-7.79362 3.49326,-14.13571 9.15993,-19.44764 4.47076,-4.18726 9.74706,-6.80218 15.41993,-8.7804 6.81767,-2.37635 13.34411,-0.86906 19.66761,1.79388 7.00047,2.94797 12.96612,7.56435 18.79855,12.33408 1.30591,1.06734 2.27101,2.47704 3.53974,4.71707 0.32376,-4.23684 -0.64134,-7.55196 -0.89075,-10.89495 -0.13477,-1.80318 -0.14561,-3.63888 -0.41981,-5.40953 -0.65063,-4.19036 1.63432,-6.42574 4.91691,-8.17779 1.577,-0.84117 2.80855,-0.38263 3.64507,0.99763 0.66457,1.09833 1.19592,2.32523 1.53208,3.56297 2.25242,8.31722 6.65346,15.41993 12.22874,21.87046 5.26236,6.08958 9.90197,12.66094 14.65776,19.13626 2.56224,3.49016 5.80145,6.25379 8.97095,9.10572 0.9496,0.85511 2.11454,1.50574 3.25934,2.10215 2.0154,1.0534 2.23848,0.85202 2.48479,-1.53208 1.1324,-10.94142 2.3593,-21.87665 3.40961,-32.82582 0.49417,-5.15546 0.7002,-10.34036 1.83415,-15.41837 0.82413,-3.69 3.11838,-5.22363 6.73092,-4.50329 2.90925,0.58092 3.94096,2.05413 3.36624,4.98661 -1.01932,5.21124 -2.30354,10.37909 -3.09359,15.62286 -1.15719,7.68053 -1.84655,15.42457 -2.24158,23.18566 -0.20138,3.97968 -0.61345,7.90825 -0.0821,11.97933 0.36404,2.78377 -1.84965,5.50557 -3.28258,8.07865 -0.81329,1.46237 -1.91161,2.76673 -2.84109,4.16713 -1.60953,2.42747 -2.43676,2.65674 -5.13377,1.30281 -4.11446,-2.06497 -7.48999,-5.11829 -10.58668,-8.41636 -5.50092,-5.85722 -10.03674,-12.51533 -14.8421,-18.92403 -3.72409,-4.96648 -7.89586,-9.58595 -11.36589,-14.74761 -0.44614,-0.66457 -0.90468,-1.58475 -2.1068,-1.71952 1.54447,10.3667 0.6212,20.71326 0.51431,31.04588 -0.0356,3.49017 -0.5329,6.97413 -0.83498,10.45965 -0.0434,0.51431 -0.12393,1.03636 -0.28039,1.52433 -0.35474,1.10452 -0.63204,2.42902 -1.99991,2.61182 -1.61418,0.21223 -2.14553,-1.16959 -2.69392,-2.33762 -1.18197,-2.51887 -1.53517,-5.20039 -1.54292,-7.95473 -0.0248,-8.4303 -0.94341,-16.80793 -1.56771,-25.2026 -0.0976,-1.24705 -0.41361,-2.4755 -0.62739,-3.71169 z m -35.48411,20.71791 c 2.59013,0.17815 3.88829,-0.68781 5.09505,-1.69009 3.28259,-2.72955 6.6829,-5.34136 9.7672,-8.28469 4.12685,-3.9394 7.96556,-8.19019 10.24896,-13.53929 1.62038,-3.79224 0.55769,-6.28323 -3.29187,-7.66039 -4.4816,-1.60334 -9.20641,-2.53436 -13.40298,-4.92155 -0.72653,-0.41362 -1.48405,-0.28969 -2.24777,0.005 -1.62192,0.62429 -2.74349,0.0991 -3.41425,-1.51349 -0.5267,-1.26563 -1.56616,-1.86049 -2.8163,-1.3245 -2.60097,1.11072 -5.43121,1.60644 -7.77038,3.43285 -7.80136,6.09113 -12.1234,14.30301 -14.54932,23.63955 -0.89849,3.45763 -0.0589,4.99745 3.08894,6.69838 6.28942,3.40187 13.32707,4.00293 19.29272,5.15857 z"
         id="path11"
         inkscape:connector-curvature="0"
         style="clip-rule:evenodd;fill:#000000;fill-opacity:1;fill-rule:evenodd;stroke:none;stroke-width:1.07311;stroke-miterlimit:4;stroke-dasharray:none;stroke-opacity:1" /><path
         d="m 548.27465,573.91039 c -0.11774,-4.64116 0.2649,-9.94224 1.64826,-15.09926 2.42592,-9.036 6.84091,-17.02171 13.15511,-23.93852 2.17652,-2.38565 4.26318,-4.87353 6.61784,-7.07173 10.16996,-9.49145 22.16014,-12.09552 35.28737,-8.14372 8.12667,2.44606 13.51296,8.54339 16.87145,16.20069 3.89603,8.88729 4.41344,18.32762 3.5955,27.85315 -0.54684,6.36223 -4.15938,11.28533 -8.13287,15.95282 -3.44524,4.0463 -6.82697,8.13752 -9.77494,12.56955 -2.00611,3.01458 -4.95563,4.96802 -8.04767,6.56826 -2.08511,1.07664 -3.91927,2.48169 -5.90679,3.62184 -5.59696,3.20977 -11.4108,6.01523 -17.83345,7.33043 -3.57382,0.73118 -6.64262,-0.15182 -9.51004,-2.22454 -1.15254,-0.83342 -2.30973,-1.68234 -3.55523,-2.3593 -9.80901,-5.34291 -13.18609,-14.42695 -14.38511,-24.74253 -0.22152,-1.91626 -0.0294,-3.88209 -0.0294,-6.51714 z m 9.53637,0.50347 c 0.18744,5.79835 1.25634,11.34109 4.32979,16.36334 0.9558,1.56306 1.89767,3.38172 3.64352,3.91926 4.82086,1.48561 9.71762,2.92009 14.72283,0.47094 3.72408,-1.82332 7.57828,-3.39877 11.22956,-5.35376 2.83488,-1.51658 5.8851,-2.78996 8.11428,-5.267 6.16394,-6.85175 11.97314,-13.98544 16.89314,-21.79145 2.54984,-4.04475 2.5483,-8.62084 2.17031,-13.19694 -0.32222,-3.92082 -1.88837,-7.20495 -5.02999,-9.69748 -0.80244,-0.63514 -1.40815,-1.51504 -2.12694,-2.26017 -1.37871,-1.42828 -2.94952,-2.52041 -4.96182,-2.87051 -5.82934,-1.00848 -11.71289,-2.92629 -17.21536,1.13085 -0.28968,0.21223 -0.74048,0.26026 -1.12001,0.28039 -3.00219,0.15492 -5.38938,1.94105 -7.60307,3.51805 -7.22354,5.13688 -13.21863,11.54558 -17.84895,19.15175 -2.92163,4.79917 -5.35995,9.77494 -5.19729,15.60273 z"
         id="path13"
         inkscape:connector-curvature="0"
         style="clip-rule:evenodd;fill:#000000;fill-opacity:1;fill-rule:evenodd;stroke:none;stroke-width:1.07311;stroke-miterlimit:4;stroke-dasharray:none;stroke-opacity:1" /><path
         d="m 650.59083,611.29372 c -3.31512,-0.29898 -6.73092,0.13168 -10.02435,-0.82103 -5.05787,-1.46392 -10.29234,-0.32532 -15.43232,-1.02707 -6.20267,-0.84737 -9.82606,-6.02142 -8.15766,-12.22409 0.51896,-1.92865 1.76135,-2.39804 3.51186,-2.17187 4.49864,0.57783 9.02361,1.00848 13.48507,1.79853 2.98515,0.5298 5.8944,0.80399 8.87025,0.18744 2.27256,-0.46938 4.41499,-0.31447 6.09114,1.55222 1.06269,1.18508 2.43831,1.40505 3.90223,1.33534 9.62932,-0.46009 19.19358,-1.63277 28.21254,-5.07956 6.29717,-2.40888 11.97314,-6.20112 17.05735,-10.70905 5.06716,-4.49245 5.70075,-10.12349 1.76289,-15.63526 -4.63341,-6.48616 -11.22181,-10.23193 -18.59561,-12.68728 -2.34072,-0.77921 -4.59159,-1.69009 -6.86725,-2.62111 -6.5822,-2.69082 -13.22947,-5.2701 -20.40344,-6.03381 -2.44141,-0.25871 -4.89831,-0.54065 -7.17706,-1.57701 -1.83726,-0.83497 -3.80309,-0.72034 -5.73949,-0.7885 -4.16558,-0.14716 -5.05942,-0.83033 -6.52953,-4.70932 -1.90542,-5.02844 -1.82021,-9.77958 1.14635,-14.4858 5.60471,-8.89195 12.71516,-15.67708 23.43506,-17.77614 1.27802,-0.25096 2.5452,-0.54374 3.85266,-0.37334 1.63432,0.21068 2.99599,0.8768 3.68845,2.47859 1.05495,2.43677 1.28577,5.02224 1.14635,7.62941 -0.0976,1.83106 -1.42829,2.37945 -3.00839,2.2803 -4.07418,-0.2618 -7.5597,1.31675 -11.05141,3.15091 -3.17724,1.6684 -5.02224,4.70003 -7.60462,6.96794 -1.55377,1.36322 -1.04721,2.52816 0.92172,3.62183 1.86669,1.03636 3.9642,1.26099 6.00748,1.48871 6.90907,0.76371 13.31158,3.1509 19.78689,5.51641 5.24377,1.91626 10.41783,3.97659 15.4695,6.29717 11.36898,5.22362 18.80785,13.59971 20.13699,26.49922 0.66922,6.49855 -0.54839,12.62376 -3.8604,18.31677 -1.03171,1.77219 -2.76518,2.72335 -4.23839,3.94716 -6.00903,4.98816 -12.52152,9.11966 -19.92476,11.82442 -3.44834,1.25943 -7.0361,2.17031 -10.5526,2.39649 -6.44898,0.41671 -12.73375,2.84418 -19.3175,1.43138 z"
         id="path15"
         inkscape:connector-curvature="0"
         style="clip-rule:evenodd;fill:#000000;fill-opacity:1;fill-rule:evenodd;stroke:none;stroke-width:1.07311;stroke-miterlimit:4;stroke-dasharray:none;stroke-opacity:1" /><path
         d="m 357.81827,542.45399 c -3.0657,-2.7187 -2.77137,-6.08029 -2.69546,-9.47441 0.14406,-6.61163 0.12857,-13.22482 0.12702,-19.83801 -0.003,-4.03545 -0.39037,-4.28641 -4.22909,-3.71169 -2.08046,0.30983 -3.97968,1.02087 -5.90369,1.83106 -4.42893,1.86824 -6.49081,0.69091 -7.47759,-4.07108 -0.10534,-0.50656 -0.189,-1.01932 -0.24167,-1.53518 -0.35939,-3.5072 0.20139,-4.27866 3.70704,-5.03618 1.89767,-0.41052 3.81858,-0.72499 5.70386,-1.18818 1.89767,-0.46473 3.34919,-1.41589 3.31511,-3.6838 -0.0279,-1.86049 1.12621,-2.81939 2.7311,-3.33215 6.70148,-2.14243 13.49902,-3.73803 20.60018,-2.79616 2.85192,0.37798 5.66667,0.56233 8.51705,0.16575 2.47704,-0.34545 4.9138,0.21533 7.33662,0.52051 2.00301,0.2525 3.43595,1.69318 4.65511,3.27793 2.01385,2.61491 3.25314,5.56444 4.08347,8.74478 1.37407,5.25461 2.56379,10.54485 4.80847,15.56554 2.13623,4.78058 1.62967,9.61538 -1.06735,14.16669 -0.52825,0.89074 -1.01467,1.80937 -1.4825,2.73574 -3.31512,6.57446 -8.99419,10.11265 -15.72356,12.36042 -3.4282,1.14635 -6.83781,2.3624 -10.20559,3.6776 -7.61392,2.97431 -15.3688,5.47614 -23.27705,7.56435 -3.49636,0.92327 -7.16932,0.90778 -10.56499,2.32213 -1.20677,0.50191 -2.26481,-0.42446 -2.96966,-1.39111 -1.4097,-1.93485 -2.06033,-4.17642 -2.17342,-6.54193 -0.0666,-1.3942 0.68007,-2.44915 1.80318,-3.26244 1.90541,-1.38181 3.91152,-2.54055 6.229,-3.08894 3.40497,-0.80554 6.80528,-1.62968 10.20869,-2.43677 1.24085,-0.30053 2.56535,-0.35629 4.18572,-1.54447 z m 6.20887,-21.63654 c -0.22772,6.75571 -0.26955,11.93286 0.0573,17.09763 0.16885,2.66293 0.79005,3.27638 2.9015,3.01303 9.46511,-1.18198 18.03948,-4.44907 25.16543,-11.00184 2.5359,-2.33142 3.87434,-5.12603 3.33525,-8.65183 -0.33151,-2.17186 -0.59796,-4.35612 -0.95426,-6.52333 -0.61965,-3.76591 -2.62111,-6.70149 -5.59387,-9.00503 -1.12466,-0.8706 -2.39958,-1.55531 -3.46537,-2.48479 -1.58165,-1.37871 -3.23766,-1.73501 -5.34911,-1.4825 -4.38091,0.5236 -8.64098,1.5708 -12.93514,2.49098 -2.9867,0.63979 -3.08584,0.59796 -3.14006,3.77675 -0.0837,4.78678 -0.0217,9.57046 -0.0217,12.77093 z"
         id="path17"
         inkscape:connector-curvature="0"
         style="clip-rule:evenodd;fill:#000000;fill-opacity:1;fill-rule:evenodd;stroke:none;stroke-width:1.07311;stroke-miterlimit:4;stroke-dasharray:none;stroke-opacity:1" /><path
         d="m 425.46518,482.31721 c 9.22035,-0.61345 19.04331,-1.14325 28.78417,-2.65209 3.58466,-0.55458 5.38319,0.96665 5.58302,4.55906 0.15337,2.74349 -0.60105,4.00137 -3.30427,4.32049 -6.84555,0.80709 -13.38438,2.96966 -20.1091,4.28796 -2.92319,0.57317 -5.91764,0.1704 -8.86561,0.71724 -3.83407,0.7126 -3.82322,0.67697 -4.49864,4.50019 -0.32686,1.84035 -0.11928,3.60325 0.031,5.40333 0.14407,1.72571 -0.54219,3.30736 -0.86905,4.95253 -0.5267,2.65054 0.14407,3.42975 2.74349,3.03627 1.67924,-0.25561 3.34764,-0.38108 5.03153,-0.30828 2.93868,0.12548 3.958,0.8861 4.7589,3.61875 0.29123,0.98988 0.50501,2.02779 0.56233,3.05331 0.14097,2.56379 -0.91089,3.75196 -3.49791,3.32596 -2.92009,-0.48023 -5.66823,0.29433 -8.48607,0.52979 -1.62813,0.13478 -3.00065,0.84582 -3.12922,2.82869 -0.38419,5.94862 -1.8512,11.7795 -1.97203,17.75755 -0.0403,2.0154 0.53135,2.73264 2.14088,1.98752 4.88747,-2.25862 10.16686,-1.77064 15.25882,-2.52042 7.81065,-1.14944 15.70496,-1.71022 23.43506,-3.44679 2.67688,-0.6026 3.59706,0.014 4.96183,2.53281 1.06579,1.96738 1.79852,4.0463 1.84655,6.28323 0.0542,2.50957 -1.02552,3.80928 -3.30427,3.86505 -9.2343,0.22462 -18.22383,2.3624 -27.34969,3.40496 -6.6767,0.76217 -13.3627,1.45772 -20.05644,2.05258 -4.52652,0.40122 -6.62867,-1.54292 -7.03299,-6.16239 -0.3625,-4.14389 0.21532,-8.19794 0.75906,-12.30775 1.7722,-13.33481 4.305,-26.60146 4.03081,-40.1516 -0.0511,-2.51887 -0.37489,-5.19729 2.01385,-7.19101 0.97595,-0.81483 0.21998,-2.22763 0.26181,-3.36623 0.13012,-3.5134 1.15564,-4.67369 4.61637,-4.89367 1.67614,-0.10534 3.36778,-0.017 5.65583,-0.017 z"
         id="path19"
         inkscape:connector-curvature="0"
         style="clip-rule:evenodd;fill:#000000;fill-opacity:1;fill-rule:evenodd;stroke:none;stroke-width:1.07311;stroke-miterlimit:4;stroke-dasharray:none;stroke-opacity:1" /><path
         d="m 497.9252,455.26496 c -5.58612,0.80709 -10.1994,-1.63897 -14.66086,-4.34683 -10.40078,-6.31111 -14.61903,-15.50823 -13.13343,-27.63163 0.76682,-6.24914 2.3748,-12.19001 4.69228,-17.97287 2.50183,-6.24295 4.5761,-12.69193 8.40397,-18.33537 0.43375,-0.63978 0.74977,-1.38491 1.27028,-1.93794 7.54266,-8.0105 21.71709,-7.44817 28.77797,1.10297 2.83334,3.4313 5.0207,7.26382 6.74177,11.32715 3.2485,7.67589 5.20349,15.7344 6.55277,23.94163 0.14561,0.88145 0.27729,1.87908 0.0186,2.69701 -1.75825,5.55669 -2.32988,11.42475 -4.62102,16.84977 -1.00693,2.38564 -2.67688,4.1284 -4.49245,5.76272 -5.57218,5.01914 -11.38137,9.59369 -19.54987,8.54339 z m 16.14491,-29.85926 c -0.53445,-9.96083 -1.924,-19.84111 -3.0688,-29.74463 -0.0589,-0.51276 -0.15337,-1.03481 -0.32222,-1.51813 -0.89849,-2.5545 -2.56224,-4.14854 -5.40797,-4.25543 -3.41116,-0.12703 -6.71233,0.44769 -9.92985,1.53827 -2.01386,0.68007 -3.23611,1.79388 -3.13077,4.25543 0.0744,1.72417 0.0124,3.9487 -1.8512,4.81466 -2.37325,1.10297 -3.25934,3.08585 -4.34682,5.1818 -1.82796,3.52115 -2.63196,7.32269 -3.38638,11.11958 -1.45307,7.33042 -1.87753,14.70423 1.03327,21.81003 2.14088,5.22363 4.52652,10.35121 11.36898,10.75708 2.26016,0.13633 4.42118,-0.2525 6.50629,-0.90468 6.93386,-2.16722 11.3504,-6.47687 11.88019,-14.14345 0.20449,-2.96657 0.8768,-5.9006 0.65528,-8.91053 z"
         id="path21"
         inkscape:connector-curvature="0"
         style="clip-rule:evenodd;fill:#000000;fill-opacity:1;fill-rule:evenodd;stroke:none;stroke-width:1.07311;stroke-miterlimit:4;stroke-dasharray:none;stroke-opacity:1" /><path
         d="m 413.99241,444.94318 c 0.49262,-4.16713 0.16266,-7.52562 0.65837,-10.85777 0.84737,-5.69766 2.91544,-11.01888 4.71552,-16.40981 3.73028,-11.18154 8.01979,-22.16014 12.66869,-32.99468 1.27493,-2.97586 2.37325,-6.02762 3.55368,-9.0422 0.69555,-1.77994 1.99062,-2.71251 3.90688,-2.55295 2.47239,0.20448 4.95718,0.48797 6.52798,2.79771 0.48488,0.71569 0.24476,1.4856 -0.0449,2.23383 -1.77684,4.58074 -3.71014,9.09487 -5.64344,13.61365 -3.85111,9.00348 -7.75334,17.95738 -9.06854,27.87948 -1.06734,8.03993 -2.91854,16.01169 -5.63105,23.70307 -1.27802,3.62648 -1.95653,7.2886 -1.46701,11.0576 0.32686,2.52352 -0.50501,3.95026 -2.82714,4.75735 -1.58165,0.54993 -2.83644,1.81866 -4.54667,2.14708 -3.03627,0.58556 -4.5606,-0.0341 -5.99818,-2.72181 -6.53883,-12.22719 -12.8329,-24.56437 -18.43296,-37.25165 -2.56999,-5.82313 -6.10353,-11.12112 -9.10572,-16.71034 -1.46702,-2.73574 -3.10599,-5.39403 -4.37007,-8.22117 -1.19592,-2.67533 -2.61491,-5.10125 -5.14617,-6.64107 -2.42437,-1.47321 -1.61263,-3.88829 -1.84965,-5.94552 -0.12083,-1.04565 1.08284,-1.4035 1.99062,-1.45772 3.38173,-0.20603 6.29407,0.57317 8.65338,3.36314 4.23684,5.00985 7.18946,10.77102 9.99646,16.59261 5.22982,10.83918 10.29544,21.75891 15.30064,32.70189 1.51969,3.3275 3.58466,6.24914 6.1593,9.95928 z"
         id="path23"
         inkscape:connector-curvature="0"
         style="clip-rule:evenodd;fill:#000000;fill-opacity:1;fill-rule:evenodd;stroke:none;stroke-width:1.07311;stroke-miterlimit:4;stroke-dasharray:none;stroke-opacity:1" /><path
         d="m 541.61499,375.47451 c 0.35474,7.63251 0.89074,15.60582 1.91935,23.58378 0.94032,7.2886 1.88838,14.61593 1.88218,22.02382 -0.009,8.39777 0.30983,16.79554 1.19128,25.15923 0.41671,3.9487 1.1262,4.80227 5.00984,4.42738 3.63734,-0.3501 7.25298,-0.21997 10.87327,-0.13477 10.2691,0.24011 20.40963,-1.14945 30.5672,-2.30199 3.46383,-0.39348 4.75735,0.13942 5.66048,2.61491 1.11382,3.04712 0.17505,5.48698 -2.30663,7.27001 -1.91936,1.38027 -3.95181,1.84036 -6.19648,1.83106 -4.27711,-0.0186 -8.5248,0.17195 -12.76319,0.88455 -5.01759,0.84272 -10.05532,-0.40587 -15.10545,-0.11928 -4.7465,0.26954 -9.50229,0.35784 -14.24724,0.75597 -2.56225,0.21532 -5.16941,0.14251 -7.7394,-0.0449 -2.8132,-0.20603 -5.3522,-1.16029 -6.72937,-3.91307 -0.61965,-1.2424 -1.62038,-1.87134 -2.83024,-2.47704 -1.71023,-0.85667 -1.82486,-2.17187 -0.1735,-2.73265 3.40341,-1.15719 3.53819,-3.78449 3.54748,-6.56671 0.0449,-13.86306 0.44615,-27.74161 -0.0418,-41.58919 -0.35474,-10.06772 -0.0449,-20.27176 -2.14398,-30.17527 -1.16338,-5.48853 -1.13705,-10.98325 -1.73501,-16.46559 -0.23701,-2.17186 0.92637,-3.14935 3.02698,-2.64589 3.49791,0.83652 7.01441,4.51258 7.3738,8.24131 0.38264,3.99053 1.12931,7.95937 0.96046,12.37436 z"
         id="path25"
         inkscape:connector-curvature="0"
         style="clip-rule:evenodd;fill:#000000;fill-opacity:1;fill-rule:evenodd;stroke:none;stroke-width:1.07311;stroke-miterlimit:4;stroke-dasharray:none;stroke-opacity:1" /><path
         d="m 471.16572,291.37287 c 0,-6.09114 -0.008,-12.18072 0.003,-18.27031 0.005,-1.83106 0.0542,-3.61254 -1.65446,-4.91535 -1.09832,-0.83652 -0.89848,-2.12384 -0.48797,-3.23146 0.76991,-2.08357 0.5267,-4.05559 -0.27574,-6.05086 -0.28659,-0.71259 -0.51121,-1.4887 -0.55923,-2.24932 -0.0589,-0.89229 0.048,-1.80782 0.18899,-2.69546 0.10379,-0.65528 0.57008,-1.5073 1.09987,-1.48251 3.12767,0.15026 3.93322,-3.62959 6.55587,-3.89448 2.92009,-0.29279 4.91226,1.58629 5.96101,4.14234 0.65838,1.60488 1.65136,1.64826 3.03937,1.61108 6.24915,-0.16885 12.32944,-1.36787 18.34156,-2.94642 3.13852,-0.82413 6.17014,-0.61035 9.14135,0.55768 0.94651,0.37179 1.88063,0.91243 2.65209,1.5739 1.90232,1.63123 1.65291,3.1757 -0.71724,4.01377 -2.8163,0.99608 -5.80454,1.25324 -8.75871,1.59404 -6.42885,0.74358 -12.83755,1.59869 -19.20598,2.78687 -2.57618,0.48022 -3.74112,1.68544 -4.14544,4.24923 -0.64753,4.10361 -0.45699,8.26765 -1.12621,12.35422 -0.24321,1.4887 0.47713,2.1951 1.74741,2.53746 1.79233,0.48332 3.57846,0.3377 5.37854,-0.0821 3.45298,-0.80399 6.67205,-0.0852 9.67115,1.72107 1.13705,0.68471 2.22608,1.44533 1.88218,3.04712 -0.31912,1.49335 -1.47941,2.02005 -2.78997,2.35776 -4.09277,1.05495 -8.23666,0.7916 -12.36661,0.39192 -3.49791,-0.33925 -3.57691,-0.4229 -3.84181,3.21597 -0.35785,4.88902 -0.7064,9.78114 -0.1859,14.69339 0.20603,1.95654 1.04566,2.69237 3.02388,2.54211 6.071,-0.46319 12.14974,-0.80709 18.22383,-1.21761 0.50811,-0.0341 1.04721,-0.13013 1.5042,-0.3439 1.54602,-0.72034 3.13851,-1.64827 4.69073,-0.25251 1.85119,1.6684 3.36933,3.66366 3.65901,6.2321 0.17351,1.54138 -0.54529,2.76983 -2.14707,3.28723 -4.1315,1.33379 -7.98571,3.2609 -12.73686,2.32678 -3.3244,-0.65528 -6.94469,0.23237 -10.43641,0.37179 -3.37708,0.13477 -6.72782,-0.0651 -9.94224,-1.23155 -4.43048,-1.60799 -5.64344,-3.44834 -5.60936,-8.10189 0.0418,-6.21197 0.0109,-12.42548 0.0109,-18.63745 0.0682,-0.003 0.13942,-0.005 0.21222,-0.005 z"
         id="path27"
         inkscape:connector-curvature="0"
         style="clip-rule:evenodd;fill:#000000;fill-opacity:1;fill-rule:evenodd;stroke:none;stroke-width:1.07311;stroke-miterlimit:4;stroke-dasharray:none;stroke-opacity:1" /><path
         d="m 448.34876,302.26007 c 1.9333,-0.0108 3.85266,-0.0434 5.7906,-0.37489 3.64973,-0.62429 7.22044,0.21068 10.723,1.25014 1.65756,0.49262 2.76828,1.49955 2.58083,3.36314 -0.17815,1.79078 -1.67614,2.28495 -3.07655,2.4538 -6.67205,0.80864 -13.23876,2.58703 -20.04249,2.22609 -1.36323,-0.0728 -2.61801,-0.37179 -3.5103,1.4794 -1.63277,3.38793 -7.73011,3.44369 -9.67115,0.18435 -1.8419,-3.09049 -3.11218,-6.5032 -5.67132,-9.18627 -1.04721,-1.09678 -0.73738,-2.62421 0.62739,-3.30892 2.0123,-1.01157 2.192,-2.64744 2.20904,-4.54511 0.12703,-13.6214 1.74896,-27.13436 2.90615,-40.6845 0.39347,-4.61947 0.76371,-9.29317 -0.31137,-13.93432 -0.56853,-2.46155 0.0991,-3.3461 2.46619,-3.9642 1.00073,-0.26025 2.0309,-0.46938 3.05951,-0.55458 3.56917,-0.29743 6.85795,2.44141 7.23903,6.01368 0.19364,1.80162 0.2618,3.5862 0.003,5.41726 -1.91781,13.58422 -2.41508,27.26294 -2.64899,40.96024 -0.0527,3.10444 -0.53135,6.19958 -0.6243,9.30556 -0.0836,2.74039 0.31447,3.10443 2.92009,3.68225 0.50346,0.11154 1.02242,0.19055 1.53673,0.20449 1.16184,0.0341 2.32832,0.0124 3.49481,0.0124 z"
         id="path29"
         inkscape:connector-curvature="0"
         style="clip-rule:evenodd;fill:#000000;fill-opacity:1;fill-rule:evenodd;stroke:none;stroke-width:1.07311;stroke-miterlimit:4;stroke-dasharray:none;stroke-opacity:1" /><path
         d="m 452.43378,392.75802 c -0.0589,-0.94806 -0.12702,-1.46701 -0.11618,-1.98442 0.0449,-2.46464 1.24084,-3.51495 3.66212,-3.24695 4.94943,0.54839 8.05076,4.6644 7.86332,9.68819 -0.39193,10.51541 -2.69082,20.75664 -4.06643,31.12953 -1.10608,8.34046 -3.08895,16.54459 -3.73338,24.94701 -0.11928,1.54912 -0.0697,3.11063 -0.21843,4.6551 -0.18744,1.96273 -1.3911,2.96811 -3.31821,3.18654 -5.98734,0.67851 -9.88647,-3.02543 -9.06389,-8.96785 0.81484,-5.8944 1.99217,-11.73457 3.16795,-17.57785 2.3748,-11.79653 4.80691,-23.60082 5.20658,-35.69169 0.0744,-2.20439 0.85047,-4.34063 0.61655,-6.13761 z"
         id="path31"
         inkscape:connector-curvature="0"
         style="clip-rule:evenodd;fill:#000000;fill-opacity:1;fill-rule:evenodd;stroke:none;stroke-width:1.07311;stroke-miterlimit:4;stroke-dasharray:none;stroke-opacity:1" /><path
         d="m 311.80016,76.823052 c 4.71706,4.532721 9.8369,8.253704 14.69958,12.273666 0.69866,0.577821 1.44688,1.093678 2.15483,1.657557 3.87589,3.087393 7.82305,5.99199 13.17525,5.683716 0.62894,-0.03563 1.27028,0.232367 1.91161,0.305176 1.43913,0.164207 3.01304,0.195189 2.9991,2.218338 -0.0109,1.597145 -1.4128,2.377895 -3.67451,2.517315 -5.03928,0.31138 -9.41709,-1.33069 -13.38284,-4.287958 -8.08794,-6.02762 -16.29363,-11.892582 -23.87191,-18.590971 -4.76044,-4.207406 -10.38374,-7.259169 -15.62596,-10.820593 -1.26408,-0.85976 -2.70476,-1.538274 -3.71169,-3.294975 2.74194,-0.432204 4.79917,-1.981322 6.90132,-3.449887 0.5298,-0.370239 1.1448,-0.673866 1.55532,-1.150995 1.95499,-2.269458 4.24458,-3.510302 7.38929,-3.53199 4.26008,-0.02943 8.30793,0.540643 11.82597,3.008388 2.48324,1.742759 3.73958,4.151638 3.0905,7.395492 -0.77766,3.882091 -2.00611,7.459006 -5.43586,10.067721 z"
         id="path33"
         inkscape:connector-curvature="0"
         style="clip-rule:evenodd;fill:#000000;fill-opacity:1;fill-rule:evenodd;stroke:none;stroke-width:1.07311;stroke-miterlimit:4;stroke-dasharray:none;stroke-opacity:1" /><path
         d="m 452.66615,359.19327 c 0.40122,-1.64826 0.89539,-4.4723 1.78614,-7.16467 1.29971,-3.93166 2.75123,-7.80756 3.89758,-11.79654 0.83032,-2.88755 1.64671,-3.20977 4.61017,-2.57308 1.88218,0.40432 3.67141,0.99918 5.70076,0.90313 2.66758,-0.12547 4.226,1.99837 3.75816,4.68144 -0.99453,5.7116 -2.33917,11.36124 -2.54055,17.19831 -0.0651,1.90077 -1.31985,2.9867 -3.17105,2.31594 -2.99909,-1.08749 -5.23757,-0.17351 -7.48534,1.60024 -3.0657,2.41972 -6.78824,-0.64909 -6.55587,-5.16477 z"
         id="path35"
         inkscape:connector-curvature="0"
         style="clip-rule:evenodd;fill:#000000;fill-opacity:1;fill-rule:evenodd;stroke:none;stroke-width:1.07311;stroke-miterlimit:4;stroke-dasharray:none;stroke-opacity:1" /><path
         d="m 271.83445,269.83392 c 4.59624,-0.26954 7.99345,2.32833 11.45108,4.78058 -4.03855,-1.06114 -7.55195,-3.38327 -11.45108,-4.78058 z"
         id="path49"
         inkscape:connector-curvature="0"
         style="clip-rule:evenodd;fill:#000000;fill-opacity:1;fill-rule:evenodd;stroke:none;stroke-width:1.07311;stroke-miterlimit:4;stroke-dasharray:none;stroke-opacity:1" /><path
         d="m 187.39975,463.2739 c 0.27729,3.0688 -0.48643,6.48771 -1.58785,9.82606 -2.59787,7.87881 -5.05167,15.8134 -8.82533,23.25072 -2.13158,4.20276 -3.08429,8.5155 -1.02087,13.07766 1.51659,3.35074 2.61492,3.64817 5.5412,1.44068 1.69319,-1.27803 2.94178,-2.9015 3.9518,-4.74341 0.52515,-0.9589 1.27338,-1.86204 2.45226,-1.43758 2.69856,0.9713 5.64498,0.72809 8.30172,1.87289 2.75124,1.18662 3.36624,2.97276 1.69939,5.51641 -5.7999,8.84546 -13.84138,10.15912 -22.11057,5.24376 -1.56151,-0.92792 -3.0781,-1.95653 -4.72017,-2.7125 -3.22371,-1.48716 -5.6171,-3.52735 -6.43658,-7.22354 -0.268,-1.20831 -0.44615,-2.80855 -1.25324,-3.60015 -3.19428,-3.13077 -1.59869,-6.31731 -0.16421,-9.25134 3.99518,-8.17005 6.96329,-16.73513 10.12969,-25.22584 0.13477,-0.36095 0.22772,-0.74203 0.32376,-1.11847 1.27493,-4.99591 1.13861,-5.188 -3.72563,-3.82632 -1.88218,0.5267 -3.31046,0.0139 -4.62412,-1.18353 -1.63741,-1.4918 -3.46382,-2.71405 -5.27319,-3.97504 -3.64818,-2.5452 -4.33444,-5.95945 -1.45618,-9.3009 3.49482,-4.05869 7.80601,-7.19876 12.77713,-9.3195 1.66995,-0.71105 3.31822,-0.40742 4.85804,0.46938 2.70321,1.53828 5.40178,3.0843 8.08175,4.6644 1.45772,0.85976 2.27566,2.25242 2.21524,3.87744 -0.16731,4.43358 0.83033,8.77576 0.86596,13.67872 z m -16.57557,-6.73092 c 1.16958,0.41052 2.29424,0.23546 3.32905,-0.11309 1.20832,-0.40896 1.38492,-1.49335 0.81639,-2.45845 -0.55458,-0.94341 -1.37252,-0.28194 -1.92401,0.15336 -0.83962,0.65993 -2.02779,1.05341 -2.22143,2.41818 z"
         id="path69"
         inkscape:connector-curvature="0"
         style="clip-rule:evenodd;fill:#000000;fill-opacity:1;fill-rule:evenodd;stroke:none;stroke-width:1.07311;stroke-miterlimit:4;stroke-dasharray:none;stroke-opacity:1" /><path
         d="m 64.368756,464.96863 c 2.937128,-3.58311 5.50092,-7.57364 8.31257,-11.38137 2.84573,-3.85266 4.219798,-8.57902 7.522519,-12.1172 0.26335,-0.28504 0.432204,-0.7033 0.745126,-0.88765 5.872708,-3.46538 10.154472,-9.09023 16.71189,-11.75626 3.463829,-1.4066 5.074909,0.80554 7.237479,2.1037 2.12694,1.27648 0.71879,3.29188 0.50502,4.95718 -0.13323,1.04256 -0.93877,1.87753 -2.10371,2.01231 -1.3183,0.15336 -1.64671,-0.82723 -2.1037,-1.83106 -1.12776,-2.46465 -1.411247,-2.60252 -3.70859,-1.35703 -4.889018,2.64899 -8.687456,6.12986 -10.802003,11.63233 -4.600882,11.97159 -11.364333,22.6822 -20.646652,31.63145 -3.342997,3.22217 -7.496184,5.51177 -10.791159,8.85012 -1.243942,1.25943 -2.715605,1.36477 -3.992078,-0.25561 -1.60024,-2.03244 -3.900681,-3.75816 -4.79762,-6.04621 -1.796978,-4.58694 -2.605618,-9.44032 0.762166,-13.90953 1.08903,-1.44533 2.051033,-2.98515 3.113728,-4.44907 1.707129,-2.35156 3.632683,-4.83635 6.842457,-4.26317 3.229912,0.57937 5.273199,3.03782 6.439685,6.10817 0.133224,0.34236 0.07436,0.76836 0.752872,0.9589 z"
         id="path71"
         inkscape:connector-curvature="0"
         style="clip-rule:evenodd;fill:#000000;fill-opacity:1;fill-rule:evenodd;stroke:none;stroke-width:1.07311;stroke-miterlimit:4;stroke-dasharray:none;stroke-opacity:1" /></g></g></svg>
